<?xml version="1.0" encoding="UTF-8" standalone="no"?>
<!-- Created with Inkscape (http://www.inkscape.org/) -->

<svg
   xmlns:dc="http://purl.org/dc/elements/1.1/"
   xmlns:cc="http://creativecommons.org/ns#"
   xmlns:rdf="http://www.w3.org/1999/02/22-rdf-syntax-ns#"
   xmlns:svg="http://www.w3.org/2000/svg"
   xmlns="http://www.w3.org/2000/svg"
   xmlns:sodipodi="http://sodipodi.sourceforge.net/DTD/sodipodi-0.dtd"
   xmlns:inkscape="http://www.inkscape.org/namespaces/inkscape"
   width="1080mm"
   height="1080mm"
   viewBox="0 0 1080 1080"
   version="1.1"
   id="svg878"
   inkscape:version="0.92.5 (2060ec1f9f, 2020-04-08)"
   sodipodi:docname="src.svg">
  <defs
     id="defs872" />
  <sodipodi:namedview
     id="base"
     pagecolor="#ffffff"
     bordercolor="#666666"
     borderopacity="1.0"
     inkscape:pageopacity="0.0"
     inkscape:pageshadow="2"
     inkscape:zoom="0.10564169"
     inkscape:cx="2393.6973"
     inkscape:cy="1196.5036"
     inkscape:document-units="mm"
     inkscape:current-layer="layer1"
     showgrid="false"
     inkscape:window-width="1680"
     inkscape:window-height="994"
     inkscape:window-x="0"
     inkscape:window-y="28"
     inkscape:window-maximized="1" />
  <metadata
     id="metadata875">
    <rdf:RDF>
      <cc:Work
         rdf:about="">
        <dc:format>image/svg+xml</dc:format>
        <dc:type
           rdf:resource="http://purl.org/dc/dcmitype/StillImage" />
        <dc:title></dc:title>
      </cc:Work>
    </rdf:RDF>
  </metadata>
  <g
     inkscape:label="Layer 1"
     inkscape:groupmode="layer"
     id="layer1"
     transform="translate(0,783)">
    <g
       id="g186"
       transform="matrix(0.41189932,0,0,0.41189932,301.77215,-560.12154)">
      <g
         id="g139">
        <g
           id="g93">
          <g
             id="g1187">
            <g
               id="g1062">
              <rect
                 y="1167.5171"
                 x="-628.08179"
                 height="499.99997"
                 width="1500"
                 id="rect2072-5"
                 style="opacity:1;vector-effect:none;fill:#efefef;fill-opacity:1;stroke:none;stroke-width:0.42608538;stroke-linecap:butt;stroke-linejoin:bevel;stroke-miterlimit:4;stroke-dasharray:none;stroke-dashoffset:0;stroke-opacity:1;paint-order:stroke fill markers" />
              <path
                 style="fill:#222831;fill-opacity:1;stroke:none;stroke-width:0.218794"
                 d="m 141.01187,1528.9893 c -6.4026,-1.2567 -11.5192,-3.1508 -16.7043,-6.184 -7.5221,-4.4002 -12.7742,-9.6154 -16.47629,-16.3607 -0.52318,-0.9532 -1.0762,-1.7743 -1.2285,-1.8245 -0.16162,-0.053 -0.45562,0.312 -0.70468,0.8754 -1.228,2.7764 -2.3467,2.8181 -5.1096,0.1908 -3.132698,-2.9793 -4.625696,-6.2923 -6.468297,-14.3551 -0.9904,-4.3336 -1.183903,-4.9229 -1.618102,-4.9229 -0.161706,0 -0.722506,0.7631 -1.246401,1.6957 -1.789597,3.186 -2.224803,3.3356 -4.137702,1.4222 -2.407395,-2.4079 -3.599793,-5.6851 -4.7174,-12.9636 -0.323323,-2.1059 -0.678737,-3.9224 -0.789632,-4.0367 -0.294797,-0.304 -0.613038,0.094 -1.616105,2.016 -0.500005,0.9583 -1.024399,1.6926 -1.208899,1.6926 -0.808975,0 -3.242293,-5.5125 -4.001294,-9.0651 -0.610365,-2.8563 -0.664564,-10.5549 -0.09904,-14.0791 0.208506,-1.2972 0.378681,-2.4541 0.378681,-2.5708 0,-0.4591 -0.612325,-0.1569 -2.078795,1.0252 -10.027505,8.0856 -27.591398,13.8312 -38.982297,12.752 -3.391608,-0.3209 -4.922403,-0.9269 -5.7569,-2.2776 -0.9289,-1.5028 -0.395975,-3.1381 1.962596,-6.0231 8.143801,-9.9617 10.257201,-14.3432 13.877301,-28.7714 0.543328,-2.1661 1.016198,-4.2829 1.050295,-4.7041 l 0.06062,-0.7658 -3.610295,-0.1462 c -3.853307,-0.156 -5.5421,-0.3547 -9.189104,-1.082 -20.4695,-4.0812 -33.7268991,-19.5904 -37.8510955,-44.2809 -0.978098,-5.8558 -1.188806,-8.3589 -1.178501,-14.0028 0.016046,-5.69 0.3119124,-8.7243 1.3156034,-13.2371 4.6727931,-21.0129 21.7422971,-36.6589 45.8093901,-41.9891 5.5352,-1.2259 7.601105,-1.4283 14.549602,-1.4256 5.6472,0 6.657898,0.053 9.189398,0.5063 3.169703,0.5616 7.166006,1.7941 9.309501,2.8713 0.776349,0.3904 2.937503,1.7014 4.802701,2.9137 1.865199,1.2125 4.031301,2.5192 4.813399,2.9042 2.180704,1.0729 5.208304,2.0057 8.457701,2.6058 1.621695,0.2995 3.137603,0.6463 3.3691,0.7702 1.0092,0.5402 0.679004,2.3662 -0.671962,3.7172 -1.661801,1.6619 -5.399606,2.9444 -10.592202,3.6346 -2.2401,0.2977 -3.669904,0.3227 -9.423604,0.1614 -11.015,-0.3085 -14.039097,-0.2505 -16.934694,0.3253 -8.319698,1.6529 -15.699701,5.6447 -21.901801,11.8466 -5.679996,5.6801 -9.500999,12.2327 -11.264503,19.3173 -0.562226,2.2607 -0.583799,2.5558 -0.506601,7.0013 0.08201,4.6405 0.08201,4.6415 0.791503,6.4232 4.351004,10.9072 15.882598,13.2502 27.185102,5.5236 3.730495,-2.5502 6.391502,-5.3776 11.635098,-12.3634 4.0382,-5.3799 5.878001,-7.5748 9.117397,-10.8777 7.052206,-7.1905 14.805399,-11.6645 23.089101,-13.3232 3.146098,-0.6303 8.781397,-0.6731 11.936697,-0.09 5.8365,1.0771 11.7026,3.8613 17.0469,8.0914 1.0123,0.8014 2.026,1.4569 2.2524,1.4569 0.22642,0 1.3673,-0.6909 2.53521,-1.5344 3.7766,-2.729 8.63119,-4.8813 13.17249,-5.8401 2.6475,-0.5589 8.6168,-0.5491 11.0489,0.018 5.3157,1.2392 11.0692,4.0681 16.0403,7.8863 3.8798,2.9799 6.9052,6.1565 14.6415,15.372 7.2225,8.6039 10.5649,11.6657 15.265,13.9829 3.039,1.4983 4.6816,1.9198 7.0048,1.798 1.3997,-0.071 2.0748,-0.2372 3.2476,-0.7854 2.658,-1.2437 5.3121,-4.2641 7.0469,-8.0187 4.26369,-9.2282 4.38899,-23.1109 0.28231,-31.2563 -3.1858,-6.3187 -9.54979,-10.8438 -17.70319,-12.5881 -2.1691,-0.4644 -4.50331,-0.6909 -12.78721,-1.244 -6.25469,-0.4172 -8.48629,-0.8531 -11.15789,-2.1793 -2.9557,-1.4667 -5.36111,-3.7676 -5.36111,-5.1281 0,-0.6267 0.96551,-0.8255 5.36061,-1.1055 7.9359,-0.5054 12.16759,-1.4272 24.1875,-5.2686 7.06739,-2.2587 8.6248,-2.605 11.7418,-2.611 8.1169,-0.018 15.5935,3.7056 22.9144,11.405 7.84299,8.2487 13.4648,19.7876 15.33379,31.4739 0.48664,3.0431 0.68284,11.3348 0.33367,14.108 -0.62624,4.974 -2.3686,9.7755 -6.7104,18.4923 -4.1849,8.4014 -7.3791,13.0313 -11.2217,16.2654 -4.7964,4.0368 -9.5775,5.9109 -18.8297,7.3806 -3.1085,0.4939 -3.9456,0.7177 -3.9456,1.0539 0,0.3949 2.1615,3.4304 3.912,5.4936 3.4922,4.116 6.3277,6.0874 10.6729,7.4202 4.1956,1.287 4.65159,2.8302 1.5634,5.2898 -3.6596,2.9145 -10.2773,4.4507 -16.8567,3.9133 -6.6134,-0.5402 -12.0358,-2.5967 -17.4516,-6.6188 -2.0623,-1.5316 -6.55419,-5.8426 -8.2387,-7.9069 -0.99249,-1.2164 -1.3882,-1.1931 -1.3882,0.08 0,1.249 -0.75005,5.4063 -1.679,9.3077 l -0.82127,3.447 1.52369,1.4514 c 1.79831,1.7133 4.10321,2.9387 6.47591,3.4431 1.5766,0.3352 2.7727,0.3254 6.6691,-0.054 1.7069,-0.1667 2.5963,0.2273 4.27169,1.891 2.3333,2.3175 3.31511,5.0909 3.32851,9.4042 0,3.0606 -0.31218,4.6478 -1.3652,6.7337 -0.9232,1.8288 -1.8858,2.9625 -6.1719,7.2691 -2.805,2.8185 -3.9928,4.1753 -4.5018,5.1417 -1.4701,2.7913 -1.25131,3.7546 1.4993,6.604 2.79979,2.9005 3.06649,3.8527 1.7563,6.2697 -1.0273,1.8952 -4.6068,4.6849 -8.201,6.3918 -0.92971,0.4412 -1.6902,0.8557 -1.6902,0.9198 0,0.062 0.33687,0.6249 0.74889,1.2456 2.76619,4.1674 2.33479,9.6228 -1.0434,13.1996 -2.2844,2.4184 -3.8738,2.8779 -6.979,2.0175 -4.0536,-1.1234 -7.3523,0.1176 -8.8897,3.3458 -0.62364,1.3094 -0.65155,1.5036 -0.7767,5.4059 -0.0713,2.2263 -0.27635,4.7861 -0.45544,5.6887 -1.1219,5.6531 -5.7642,10.0787 -11.96139,11.4031 -1.43071,0.3058 -3.1847,0.4644 -5.86921,0.5304 -3.3764,0.08 -4.13899,0.036 -6.4545,-0.4208 z m 7.8673,-10.3642 c -1.2604,-2.9173 -1.6972,-4.447 -1.7974,-6.2903 -0.19219,-3.5406 0.8947,-6.4104 3.4729,-9.1712 3.2028,-3.4293 6.8204,-4.3027 19.1192,-4.6149 7.5752,-0.1925 9.5767,-0.5571 11.1119,-2.0273 0.88911,-0.8514 1.3486,-2.603 1.0493,-3.9998 -0.51623,-2.4049 -1.8083,-3.8845 -4.5164,-5.1706 l -1.601,-0.7604 -3.8969,0.08 -3.8973,0.08 -3.7196,1.2379 c -4.5128,1.502 -4.975,1.6228 -7.3186,1.9121 -2.3606,0.2915 -6.9446,-0.036 -9.2004,-0.657 -2.2686,-0.6249 -6.5067,-2.7308 -8.8455,-4.3957 -4.0114,-2.8556 -7.9814,-7.3344 -9.7616,-11.0124 -1.4273,-2.9484 -2.1547,-6.5691 -1.31979,-6.5691 0.17133,0 0.95969,1.083 1.75239,2.4068 4.331,7.2326 10.0919,12.5477 16.298,15.0372 1.725,0.6917 1.848,0.7086 5.1584,0.7122 h 3.3915 l 6.6861,-1.7992 c 10.173,-2.7376 9.0081,-2.5545 16.3965,-2.5775 4.5795,-0.018 6.6898,-0.1008 7.264,-0.2969 0.9037,-0.3084 2.0657,-1.5012 2.275,-2.335 0.38038,-1.5153 -0.52389,-3.5675 -2.7511,-6.2439 -1.369,-1.6449 -1.7556,-2.4733 -1.7556,-3.7638 0,-2.1168 1.8747,-4.4232 7.4745,-9.1964 3.2734,-2.7904 4.2277,-3.8319 5.0998,-5.5685 1.303,-2.5942 1.529,-6.58 0.55233,-9.7419 -0.36727,-1.1899 -0.70236,-1.7411 -1.705,-2.8054 l -1.24761,-1.3245 -3.50059,0.2425 c -4.1432,0.287 -5.1712,0.1453 -7.3819,-1.0167 -4.0322,-2.1189 -7.9786,-7.6667 -10.7865,-15.1636 -1.5394,-4.1106 -3.125,-7.0005 -7.07941,-12.9015 -3.5315,-5.2699 -4.8358,-7.5494 -4.8362,-8.4505 0,-0.2514 0.18613,-1.1869 0.4139,-2.0786 0.22802,-0.8917 0.48422,-2.3705 0.56989,-3.2862 0.22161,-2.3727 0.35746,-2.4868 1.4786,-1.2405 0.51079,0.5678 1.1787,1.0903 1.4846,1.1608 0.3055,0.071 1.7216,-0.071 3.146,-0.3218 4.275,-0.7426 6.6508,-0.5696 9.3665,0.6828 1.1212,0.517 1.5596,0.6276 1.7463,0.4404 0.34721,-0.3468 -0.40364,-3.8181 -1.7595,-8.1366 -1.476,-4.7002 -1.681,-5.6177 -1.3459,-6.0215 0.4269,-0.5144 0.9651,-0.3833 2.0444,0.4965 2.1855,1.7824 4.3168,5.1395 5.4837,8.637 0.29186,0.8754 1.1861,3.9476 1.9868,6.8272 2.29729,8.261 3.7835,12.0402 6.1092,15.5354 1.63479,2.4572 3.1417,3.8433 4.1779,3.8433 0.88822,0 1.3893,-0.2219 2.5425,-1.1256 0.43859,-0.3432 0.9073,-0.6249 1.0413,-0.6249 0.13363,0 1.4957,1.1435 3.0253,2.5409 4.13079,3.7735 6.1643,5.0297 9.17499,5.6676 2.06841,0.4386 5.39971,0.4332 5.76641,-0.01 0.33339,-0.402 0.38759,-0.3477 -1.0984,-1.0909 -5.2203,-2.6107 -9.4866,-9.1251 -16.3073,-24.9017 -3.5531,-8.2185 -5.77141,-11.7235 -10.275,-16.2346 -4.7322,-4.7405 -9.02131,-7.3105 -14.5054,-8.6921 -1.6136,-0.4065 -2.5247,-0.4805 -5.9528,-0.4858 -4.9921,-0.01 -5.5549,0.1435 -11.4868,3.0755 -7.5812,3.7478 -9.0029,3.7922 -16.9565,0.5295 -12.4585,-5.1104 -16.0696,-6.1415 -23.0583,-6.5834 -4.0619,-0.2567 -7.3432,-0.027 -9.6514,0.6864 -0.84241,0.2594 -4.58379,1.6837 -8.314299,3.1655 -3.7302,1.4818 -8.111495,3.1036 -9.736203,3.6041 -8.207895,2.5286 -10.915898,3.6558 -14.430997,6.0078 -7.427097,4.9693 -13.344794,13.1337 -16.593693,22.8933 -1.911,5.7402 -2.861704,10.2923 -3.971307,19.0158 -1.061999,8.3508 -1.7967,10.4387 -6.583401,18.7069 -2.083296,3.598 -3.273092,5.9225 -3.273199,6.3946 0,0.148 0.244342,0.4288 0.54315,0.624 0.723487,0.4742 1.996997,0.1747 5.342295,-1.2541 4.645899,-1.9847 8.416499,-4.4757 10.594903,-6.9996 0.556254,-0.6445 1.974096,-2.4431 3.1506,-3.9964 1.176397,-1.5533 2.401395,-3.0184 2.721295,-3.2558 0.817801,-0.6052 1.4819,-0.3663 2.329804,0.8362 1.276604,1.8112 1.564804,1.4175 3.447403,-4.7111 1.358597,-4.4238 2.677,-7.7115 3.369697,-8.4044 0.399451,-0.3993 0.514713,-0.4154 1.155404,-0.1577 1.463893,0.5883 1.444094,0.5936 2.869691,-0.871 0.964406,-0.991 1.683801,-2.0334 2.475108,-3.5851 2.2167,-4.3477 2.920593,-7.2018 3.452992,-14.0028 0.534147,-6.8262 1.193005,-9.7143 3.066904,-13.4454 3.071601,-6.1159 8.916397,-9.9875 15.758403,-10.4382 1.7569,-0.1159 2.0269,-0.08 2.5053,0.3076 0.51543,0.4207 0.52176,0.4582 0.17107,0.9935 -0.24479,0.3735 -0.961,0.7853 -2.1768,1.2519 -3.9194,1.5037 -5.853703,3.0389 -7.314699,5.8049 -1.609304,3.0466 -1.968801,4.9669 -3.031202,16.1823 -1.379002,14.5575 -1.929195,16.8311 -6.216496,25.6967 -0.866473,1.7918 -0.893805,1.9152 -0.886976,4.0477 0.01605,4.1721 0.572835,6.5957 1.483701,6.4226 0.203246,-0.036 0.936102,-0.9061 1.628398,-1.9279 0.692822,-1.0217 1.749499,-2.3813 2.348204,-3.0212 0.883855,-0.9443 1.202899,-1.1505 1.693499,-1.094 0.754331,0.089 0.925602,0.8094 0.639158,2.6952 -0.31842,2.0959 -0.22892,7.6291 0.173918,10.7209 1.023303,7.8555 3.512602,17.8086 4.501602,17.9991 0.221432,0.044 0.694694,-0.6062 1.421903,-1.95 1.9649,-3.63 4.4236,-6.5498 5.2486,-6.2332 0.36308,0.1391 0.38982,0.2532 0.87182,3.7493 0.19906,1.4441 0.79988,4.8408 1.3346,7.5484 3.37931,17.0997 8.29421,28.4585 15.704,36.2915 3.83231,4.0514 9.9186,7.8339 15.67331,9.7407 2.65709,0.8807 7.0691,1.8356 8.61089,1.864 0.933,0.018 1.0425,-0.027 0.8973,-0.3637 z m 4.0899,-58.7611 c -0.1322,-0.1586 -0.35247,-0.8237 -0.49091,-1.4768 -0.41211,-1.9462 -1.2772,-3.3152 -2.35889,-3.7327 -0.42736,-0.1649 -0.83118,-0.018 -2.27901,0.8308 -1.41129,0.8273 -1.95789,1.0309 -2.7625,1.028 -2.0534,-0.01 -4.4093,-1.695 -5.1792,-3.7108 -0.50838,-1.3314 -0.18533,-2.4122 1.0343,-3.456 1.0861,-0.9298 2.4472,-1.4283 4.3568,-1.596 2.8665,-0.2514 4.9527,0.8683 7.247,3.8899 2.3151,3.0488 3.2194,5.5465 2.5072,6.924 -0.33259,0.6427 -1.3282,1.5877 -1.6729,1.5877 -0.09,0 -0.27028,-0.1301 -0.40194,-0.2888 z m -17.1724,-2.3918 c -2.0251,-2.7012 -2.9309,-7.8421 -2.00689,-11.3896 1.05329,-4.0436 4.56769,-7.2914 9.30849,-8.6018 2.2695,-0.6276 6.3357,-0.5215 8.8451,0.23 5.355,1.6039 10.7447,5.0421 15.3784,9.81 1.6795,1.728 1.805,1.9212 1.805,2.776 0,0.7239 -0.13532,1.0545 -0.63942,1.5583 -1.2203,1.2203 -1.80251,0.9515 -6.06551,-2.801 -6.1868,-5.4461 -9.9132,-7.7929 -13.53069,-8.522 -5.44861,-1.0981 -10.32631,2.1296 -11.86371,7.8506 -0.40596,1.5112 -0.51881,5.7437 -0.22143,8.3238 0.19941,1.7289 -0.11098,1.9641 -1.0094,0.7657 z m -16.277,-43.0686 c -1.32369,-0.6552 -3.2025,-2.773 -3.8086,-4.2928 -0.41764,-1.0474 -0.50562,-1.6804 -0.5107,-3.6723 0,-2.2621 0.033,-2.4768 0.63951,-3.5728 1.2743,-2.3001 3.885,-4.2057 6.7932,-4.9583 1.7567,-0.4546 6.2029,-0.6543 7.9746,-0.3575 1.8142,0.304 2.0159,0.1302 2.6549,-2.2898 0.44928,-1.701 0.81869,-2.2143 1.1767,-1.6351 0.0704,0.1124 0.31129,1.23 0.53727,2.4831 0.25789,1.4306 0.67241,2.8209 1.11351,3.736 0.55126,1.1425 0.67249,1.6203 0.56142,2.2114 -0.14147,0.7577 -0.9984,1.6483 -1.5848,1.6483 -0.16901,0 -1.2142,-0.3522 -2.3225,-0.7836 -2.628,-1.0211 -3.9953,-1.1781 -4.7885,-0.55 -0.76779,0.6079 -0.96599,1.5437 -0.5124,2.4205 0.66234,1.2812 2.35,1.3892 3.2244,0.2059 0.25923,-0.3503 0.54752,-0.6374 0.64059,-0.6374 0.093,0 0.27759,0.403 0.40997,0.8945 0.47281,1.7556 -0.52889,4.188 -2.2026,5.3476 -0.71279,0.4939 -1.2165,0.6516 -2.30631,0.7212 -0.76698,0.045 -1.75009,0.018 -2.18469,-0.062 -1.5874,-0.2978 -3.8139,-3.1232 -3.8139,-4.8405 0,-0.9447 0.54716,-2.4254 1.22379,-3.3127 0.30755,-0.4029 0.52684,-0.829 0.48753,-0.9463 -0.10439,-0.3129 -1.6875,0.5821 -2.667,1.5063 -1.1712,1.1052 -1.65889,2.2548 -1.66479,3.9223 0,1.753 0.54849,3.3302 1.85629,5.2793 1.3485,2.0103 1.0471,2.5087 -0.9269,1.5317 z m 57.4527,12.3281 c 0.58059,-1.0953 1.7873,-10.1567 1.9324,-14.5123 0.14788,-4.4343 -0.15752,-6.4374 -1.2418,-8.1475 -0.59476,-0.9379 -2.4662,-2.5477 -2.9569,-2.5435 -0.49207,0.01 -1.948,1.2324 -2.1376,1.8035 -0.67624,2.035 2.0908,3.2675 3.4807,1.5505 0.67891,-0.8388 0.9541,-0.493 0.9541,1.1978 0,2.7493 -1.535,4.7596 -4.0296,5.2775 -1.2764,0.2647 -2.9013,0.018 -3.8113,-0.5732 -0.87548,-0.5714 -0.75558,-0.1872 0.42753,1.3714 1.4772,1.9462 2.0387,3.2225 3.6916,8.3946 1.2617,3.9472 1.9076,5.5978 2.46249,6.2903 0.31709,0.3958 0.9923,0.3352 1.22841,-0.1096 z m -9.8059,-18.2368 c -0.5953,-1.3115 -0.59058,-3.2614 0.016,-4.5029 0.53477,-1.1047 1.9155,-2.359 2.98661,-2.7123 1.27979,-0.4226 0.49198,-0.6641 -2.26431,-0.6953 -2.9733,-0.036 -3.96619,0.2121 -4.782,1.1814 -0.6659,0.7916 -0.70806,1.658 -0.13371,2.767 0.63782,1.2323 4.3028,5.2417 4.5582,4.9864 0.033,-0.036 -0.13541,-0.4947 -0.37503,-1.0243 z m -139.070289,-1.4807 c 0.06597,-0.1043 -0.229634,-1.2122 -0.654045,-2.4614 -1.377299,-4.0534 -1.796995,-6.5136 -1.6632,-9.7408 0.04992,-1.2121 0.643258,-1.9444 1.416701,-1.7503 0.317529,0.08 1.835603,1.3349 3.373503,2.7894 4.757604,4.4998 7.359804,6.2125 11.0742,7.2889 2.007899,0.5821 5.186499,1.0034 7.521099,0.9974 l 1.485502,-0.01 1.531499,-2.3424 c 7.056297,-10.7921 15.379597,-18.823 24.395398,-23.5381 1.263704,-0.6606 3.841701,-1.8087 5.7289,-2.5508 3.451102,-1.3569 4.644597,-2.0964 4.515099,-2.7976 -0.03833,-0.2085 -0.709937,-0.7871 -1.492196,-1.2866 -0.782233,-0.4992 -1.716205,-1.1545 -2.076299,-1.4563 -0.64201,-0.5384 -0.646378,-0.5571 -0.247997,-0.9976 1.007899,-1.1136 7.653299,-2.4781 16.108504,-3.3075 4.100491,-0.402 5.907401,-0.6953 5.902001,-0.9568 0,-0.1381 -0.8827,-0.73 -1.95531,-1.3162 -2.31009,-1.2618 -3.0575,-1.9498 -2.71579,-2.4999 0.6684,-1.0767 3.0337,-1.5687 7.5596,-1.573 4.08219,-0.01 6.0747,0.213 9.2207,1.0037 4.31689,1.0847 10.2412,3.6792 14.80769,6.4843 10.39491,6.3856 11.17451,6.8197 13.56521,7.5541 4.823,1.4815 7.8382,0.4876 13.4349,-4.4274 3.817,-3.352 5.25559,-4.2731 6.6748,-4.2731 0.8096,0 1.33099,0.6811 1.33569,1.7443 0,0.4243 0.098,0.9187 0.20967,1.0983 0.23739,0.3753 2.6096,0.6088 6.5035,0.6391 l 2.4503,0.018 0.59405,0.7792 c 0.67847,0.8896 1.1892,1.1867 3.4155,1.9863 1.9979,0.7176 3.9415,1.7015 6.18521,3.1314 0.9651,0.6151 1.7843,1.0076 1.82829,0.8763 0.098,-0.2907 -1.86409,-3.269 -4.09869,-6.2257 -5.35561,-7.0855 -11.51561,-13.4374 -16.03151,-16.5303 -2.4638,-1.6876 -6.4759,-3.7455 -8.7887,-4.5079 -1.5982,-0.5268 -2.1267,-0.591 -4.96119,-0.6035 -2.48171,-0.01 -3.45831,0.071 -4.48541,0.386 -1.924,0.5874 -4.6582,2.0744 -5.768,3.1381 -0.81833,0.7836 -0.92639,0.9813 -0.69193,1.2638 0.37387,0.4502 1.0017,0.4216 2.5423,-0.1168 2.2959,-0.8023 8.6217,-0.8611 8.6217,-0.08 0,0.172 -0.0339,0.312 -0.0767,0.312 -0.0419,0 -1.24869,0.3022 -2.6803,0.6721 -4.9766,1.2843 -8.159,3.3393 -9.90989,6.3997 -0.42023,0.7345 -0.86122,1.2428 -1.078,1.2427 -0.20147,0 -1.3513,-0.7667 -2.5547,-1.7037 -8.1517,-6.3472 -15.6515,-10.3917 -23.411,-12.6255 -3.7246,-1.0723 -5.4365,-1.253 -10.93241,-1.1539 -5.028889,0.091 -5.044891,0.093 -7.664892,0.8754 -4.872198,1.4553 -9.319494,3.6937 -13.320298,6.7044 -4.107197,3.0908 -9.423596,8.615 -13.9439,14.4892 -4.055699,5.2705 -5.420902,6.9029 -7.550196,9.0276 -5.937005,5.9245 -12.598104,9.4173 -19.518904,10.2349 -3.839098,0.4537 -7.9148,-0.4448 -11.210098,-2.4715 -3.078697,-1.8933 -4.118803,-2.3723 -5.152999,-2.3723 -1.129802,0 -1.415604,0.3397 -1.914004,2.2738 -0.478165,1.8552 -0.671428,1.9531 -1.664894,0.8424 -1.706104,-1.907 -3.377006,-5.9352 -3.952702,-9.5281 -0.597884,-3.7317 0.05705,-10.7997 1.441001,-15.5549 1.8642,-6.4045 5.983698,-13.9211 11.103501,-20.2605 2.292801,-2.8388 7.113295,-7.5819 9.453396,-9.3018 0.962605,-0.7078 2.212803,-1.6279 2.777901,-2.0453 1.1478,-0.8477 1.610498,-1.7026 1.391803,-2.5736 -0.08112,-0.321 -0.731599,-1.1923 -1.447001,-1.9373 -1.291802,-1.3451 -1.497001,-1.7173 -1.087102,-1.9704 0.392676,-0.2425 5.117297,-0.7435 9.432599,-0.9991 2.486901,-0.1471 7.236803,-0.2104 11.370199,-0.1507 6.433596,0.094 7.447298,0.1596 10.8181,0.7114 5.938601,0.9719 13.6465,0.8655 15.115296,-0.2077 0.363972,-0.2666 0.245144,-0.3423 -1.2079,-0.7756 -2.036898,-0.607 -3.9776,-1.4613 -11.063092,-4.8721 -8.784403,-4.2289 -10.439303,-4.6497 -18.269204,-4.6451 -5.285101,0 -6.782601,0.14 -6.782601,0.6187 0,0.1515 0.352562,0.6151 0.783837,1.0293 1.358704,1.3071 1.452002,1.9373 0.348996,2.3616 -0.760749,0.2924 -1.487908,0.394 -6.577402,0.9114 -6.688501,0.6802 -10.763401,1.5143 -16.081699,3.2905 -3.159505,1.0553 -6.916904,2.7903 -6.916904,3.1941 0,0.2354 0.693268,0.2951 3.403705,0.2951 1.872294,0 3.833197,0.1079 4.357796,0.2398 1.081799,0.2728 1.906802,0.9285 1.733998,1.3789 -0.14468,0.378 -1.7316,1.0902 -5.666794,2.5427 -10.310001,3.8058 -15.329499,7.6168 -19.3152025,14.6657 -2.2639008,4.004 -4.7180957,12.2345 -5.6402028,18.9145 -0.52371683,3.7938 -0.3430234,9.6799 0.4200432,13.6746 0.7113634,3.7268 1.7800934,7.6249 3.0891982,11.2691 1.1239008,3.1289 3.9221977,9.0788 4.2699011,9.0788 0.1215914,0 0.2233039,-0.071 0.2274045,-0.164 0,-0.09 0.04368,-1.4933 0.090035,-3.1178 0.12694,-4.5557 0.8867973,-7.5987 2.2529003,-9.0252 0.69924,-0.7301 1.252,-0.7667 1.680003,-0.1097 0.176237,0.271 0.766633,2.0183 1.311494,3.8836 2.836504,9.7075 7.019107,16.81 11.790002,20.0231 1.203399,0.8103 1.371898,0.8727 1.557503,0.5723 z m 192.526289,-10.3259 c 2.11739,-0.7658 3.72459,-1.6822 5.9942,-3.4164 1.6303,-1.2459 2.4334,-2.1169 6.3916,-6.9336 1.26009,-1.5333 2.6219,-2.9923 3.02649,-3.2422 0.67482,-0.4172 0.76423,-0.4261 1.08651,-0.1034 0.31628,0.3164 0.32288,0.6454 0.0669,3.3219 -0.15752,1.6339 -0.2242,3.0318 -0.14967,3.1064 0.65983,0.6597 4.9039,-6.5904 7.132,-12.1831 0.9299,-2.3339 1.9803,-6.0954 2.4465,-8.7601 0.37128,-2.1225 0.37172,-10.5935 0,-13.2371 -1.0149,-7.2322 -4.7888,-15.6075 -10.05,-22.3028 -1.7795,-2.2651 -6.8715,-7.2579 -9.0729,-8.8967 -4.127,-3.0725 -8.5492,-5.3688 -12.2379,-6.3548 -1.4376,-0.3842 -2.447,-0.4903 -4.7767,-0.5019 l -2.9537,-0.018 -3.9383,1.3526 c -5.6586,1.9437 -10.77089,2.9263 -19.13229,3.6775 -2.09961,0.189 -3.86871,0.3949 -3.93191,0.4582 -0.16919,0.1694 0.4155,0.4975 1.3424,0.7542 0.44759,0.1239 4.19121,0.3655 8.319,0.5366 4.1279,0.1712 7.946,0.3727 8.485,0.4475 7.08161,0.9892 14.5253,3.8258 20.4891,7.8078 2.6276,1.7546 6.3502,5.2337 8.1362,7.6042 2.4143,3.2038 4.7674,8.8162 5.0033,11.9325 0.1018,1.3431 0.0651,1.591 -0.25227,1.7127 -0.44037,0.1694 -1.3196,-0.2568 -2.6899,-1.3028 -0.6799,-0.5188 -1.0707,-0.6917 -1.223,-0.5393 -0.26717,0.2675 0.9609,4.2057 3.0762,9.8645 1.4139,3.7826 1.4327,3.8607 1.5343,6.4639 0.11766,3.0358 -0.17624,4.8656 -0.9236,5.7345 -0.62543,0.7274 -0.81423,0.6008 -2.1834,-1.4589 -0.9255,-1.3922 -3.3778,-3.9568 -3.7833,-3.9568 -0.59833,0 -1.0661,0.8709 -2.0372,3.7926 -2.3284,7.0057 -4.67211,10.3095 -8.7886,12.3878 -4.2873,2.1648 -8.8826,2.0406 -15.40261,-0.4163 -1.291,-0.4867 -2.39439,-0.838 -2.45189,-0.78 -0.32252,0.3227 3.8165,3.4428 6.1097,4.6052 3.09819,1.5704 5.1412,1.9422 12.0602,2.194 3.2838,0.1194 4.153,0.2157 4.3759,0.4849 0.15279,0.1846 0.2783,0.8916 0.2783,1.5712 0,1.0775 -0.13362,1.4651 -1.0394,3.0244 -0.57132,0.9839 -1.0391,1.8894 -1.0391,2.0125 0,0.3798 0.7751,0.2514 2.70461,-0.4466 z"
                 id="path1872-3-4-9"
                 inkscape:connector-curvature="0" />
            </g>
          </g>
          <g
             inkscape:export-ydpi="14.901735"
             inkscape:export-xdpi="14.901735"
             id="g936">
            <g
               id="g1983"
               transform="matrix(18.32948,0,0,18.32948,945.61087,-3483.492)">
              <rect
                 y="184.34335"
                 x="1.1553844"
                 height="46.496124"
                 width="46.496124"
                 id="rect995"
                 style="opacity:1;vector-effect:none;fill:#efefef;fill-opacity:1;stroke:none;stroke-width:0.0809932;stroke-linecap:butt;stroke-linejoin:bevel;stroke-miterlimit:4;stroke-dasharray:none;stroke-dashoffset:0;stroke-opacity:1;paint-order:stroke fill markers" />
              <path
                 style="fill:#222831;fill-opacity:1;stroke:none;stroke-width:0.02454408"
                 d="m 26.545352,220.09627 c -0.718237,-0.14097 -1.292212,-0.35345 -1.873871,-0.69372 -0.843821,-0.49362 -1.432996,-1.07865 -1.848294,-1.83533 -0.05869,-0.10693 -0.120727,-0.19903 -0.137812,-0.20467 -0.01813,-0.006 -0.05111,0.035 -0.07905,0.0982 -0.137756,0.31145 -0.263251,0.31613 -0.57319,0.0214 -0.351423,-0.33421 -0.518906,-0.70587 -0.725607,-1.61034 -0.111102,-0.48614 -0.132808,-0.55224 -0.181517,-0.55224 -0.01814,0 -0.08105,0.0856 -0.139819,0.19022 -0.200756,0.3574 -0.249576,0.37418 -0.464163,0.15953 -0.27006,-0.27011 -0.403822,-0.63774 -0.529193,-1.45424 -0.03627,-0.23623 -0.07614,-0.44001 -0.08858,-0.45284 -0.03307,-0.0341 -0.06877,0.0105 -0.181292,0.22616 -0.05609,0.10751 -0.114916,0.18987 -0.135613,0.18987 -0.09075,0 -0.363718,-0.61837 -0.448862,-1.01691 -0.06847,-0.32042 -0.07455,-1.18403 -0.01111,-1.57937 0.02339,-0.14553 0.04248,-0.2753 0.04248,-0.28839 0,-0.0515 -0.06869,-0.0176 -0.233198,0.115 -1.124874,0.90704 -3.095176,1.55158 -4.372995,1.4305 -0.380466,-0.0361 -0.55219,-0.10397 -0.645803,-0.25549 -0.104203,-0.16859 -0.04442,-0.35203 0.220162,-0.67567 0.913563,-1.11748 1.150642,-1.609 1.556741,-3.22754 0.06095,-0.24299 0.113996,-0.48046 0.117822,-0.5277 l 0.0068,-0.0859 -0.405,-0.0164 c -0.432259,-0.0175 -0.621707,-0.0398 -1.030824,-0.12139 -2.296246,-0.45783 -3.783447,-2.19762 -4.246096,-4.96739 -0.109722,-0.65689 -0.133358,-0.93769 -0.132203,-1.57082 0.0018,-0.63829 0.03499,-0.97867 0.147583,-1.48491 0.52419,-2.35722 2.439028,-4.11236 5.13885,-4.7103 0.620933,-0.13751 0.852685,-0.16022 1.632161,-0.15992 0.633497,3.3e-4 0.746876,0.006 1.030857,0.0568 0.355573,0.063 0.803874,0.20125 1.04433,0.3221 0.08708,0.0438 0.329525,0.19086 0.538762,0.32686 0.209236,0.136 0.452227,0.2826 0.539962,0.32578 0.244628,0.12036 0.584261,0.22499 0.948775,0.29232 0.181921,0.0336 0.351973,0.0725 0.377943,0.0863 0.113211,0.0606 0.07617,0.26545 -0.07539,0.41699 -0.186419,0.18643 -0.605721,0.33031 -1.188221,0.40774 -0.251293,0.0334 -0.411686,0.0362 -1.05713,0.0181 -1.235651,-0.0346 -1.574891,-0.0281 -1.899717,0.0365 -0.933295,0.18542 -1.761178,0.63321 -2.456923,1.32893 -0.637176,0.63719 -1.065812,1.37226 -1.263639,2.16699 -0.06307,0.2536 -0.06549,0.28671 -0.05683,0.78541 0.0092,0.52057 0.0092,0.52068 0.08879,0.72054 0.48809,1.22356 1.781693,1.4864 3.049597,0.61963 0.418484,-0.28607 0.716992,-0.60325 1.305214,-1.3869 0.453001,-0.60353 0.659387,-0.84975 1.02278,-1.22026 0.791108,-0.80662 1.660854,-1.30852 2.590111,-1.49458 0.352926,-0.0707 0.985088,-0.0755 1.339046,-0.0101 0.654732,0.12081 1.312785,0.43315 1.912303,0.90768 0.113559,0.0899 0.227275,0.16343 0.252672,0.16343 0.0254,0 0.153382,-0.0775 0.284396,-0.17213 0.423655,-0.30614 0.968239,-0.54757 1.477677,-0.65514 0.296994,-0.0627 0.966624,-0.0616 1.239454,0.002 0.59631,0.139 1.241731,0.45635 1.799384,0.88467 0.435232,0.33429 0.774618,0.69062 1.642468,1.72442 0.810212,0.96518 1.185159,1.30864 1.712411,1.56859 0.340912,0.16807 0.525177,0.21536 0.785791,0.20169 0.157017,-0.008 0.232749,-0.0266 0.364313,-0.0881 0.298171,-0.13953 0.595906,-0.47835 0.790514,-0.89953 0.478297,-1.03522 0.492353,-2.59257 0.03167,-3.5063 -0.35738,-0.70883 -1.071287,-1.21645 -1.985927,-1.41213 -0.243327,-0.0521 -0.505175,-0.0775 -1.434454,-0.13955 -0.701646,-0.0468 -0.951984,-0.0957 -1.251681,-0.24446 -0.331568,-0.16455 -0.601403,-0.42265 -0.601403,-0.57527 0,-0.0703 0.108309,-0.0926 0.601346,-0.12402 0.890241,-0.0567 1.364949,-0.1601 2.713329,-0.59102 0.792813,-0.25338 0.96752,-0.29223 1.317182,-0.2929 0.910545,-0.002 1.749263,0.41569 2.570513,1.2794 0.87982,0.92533 1.510467,2.21976 1.72013,3.5307 0.05459,0.34138 0.0766,1.27153 0.03743,1.58263 -0.07025,0.55797 -0.265707,1.0966 -0.752766,2.07444 -0.469457,0.94246 -0.827779,1.46185 -1.258838,1.82464 -0.538055,0.45285 -1.074394,0.66307 -2.112296,0.82795 -0.348708,0.0554 -0.442613,0.0805 -0.442613,0.11823 0,0.0443 0.242475,0.38481 0.438844,0.61626 0.391751,0.46173 0.709835,0.68288 1.197274,0.83239 0.470658,0.14437 0.521812,0.31749 0.175381,0.59341 -0.41053,0.32694 -1.152897,0.49928 -1.890967,0.43899 -0.741884,-0.0606 -1.350163,-0.29131 -1.957702,-0.7425 -0.231346,-0.1718 -0.735243,-0.65541 -0.924208,-0.88698 -0.111338,-0.13646 -0.155727,-0.13385 -0.155727,0.009 0,0.14011 -0.08415,0.60647 -0.188349,1.04413 l -0.09213,0.38668 0.170927,0.16282 c 0.201731,0.19219 0.460293,0.32965 0.72646,0.38624 0.176861,0.0376 0.311038,0.0365 0.748132,-0.006 0.191478,-0.0187 0.29125,0.0255 0.479195,0.21213 0.261747,0.25997 0.371884,0.57109 0.373387,1.05495 0,0.34334 -0.03502,0.52139 -0.153146,0.75538 -0.103564,0.20515 -0.211547,0.33233 -0.692357,0.81544 -0.314662,0.31618 -0.447908,0.46838 -0.505008,0.57679 -0.164914,0.31312 -0.140369,0.42119 0.16819,0.74083 0.314079,0.32537 0.343997,0.43219 0.19702,0.70333 -0.115241,0.2126 -0.516786,0.52555 -0.919979,0.71702 -0.104293,0.0495 -0.189605,0.096 -0.189605,0.10319 0,0.007 0.03779,0.0701 0.08401,0.13973 0.310309,0.46749 0.261915,1.07947 -0.117048,1.48071 -0.256261,0.2713 -0.434559,0.32284 -0.782897,0.22632 -0.454728,-0.12602 -0.824773,0.0133 -0.997237,0.37533 -0.06996,0.14689 -0.07308,0.16868 -0.08713,0.60643 -0.008,0.24974 -0.03099,0.5369 -0.05109,0.63815 -0.125854,0.63416 -0.646622,1.13062 -1.341818,1.27919 -0.160494,0.0343 -0.357256,0.0521 -0.6584,0.0595 -0.378761,0.009 -0.464309,0.004 -0.724059,-0.0472 z m 0.882545,-1.16264 c -0.14139,-0.32726 -0.19039,-0.49886 -0.20163,-0.70564 -0.02156,-0.39719 0.100366,-0.71912 0.389586,-1.02882 0.359287,-0.3847 0.765105,-0.48267 2.144771,-0.5177 0.849778,-0.0216 1.074304,-0.0625 1.246522,-0.22743 0.09974,-0.0955 0.151284,-0.29199 0.117709,-0.44869 -0.05791,-0.26978 -0.202853,-0.43576 -0.506645,-0.58002 l -0.179599,-0.0853 -0.43715,0.009 -0.437195,0.009 -0.41726,0.13887 c -0.506242,0.16849 -0.558091,0.18204 -0.820993,0.2145 -0.26481,0.0327 -0.779038,-0.004 -1.032091,-0.0737 -0.254489,-0.0701 -0.729915,-0.30634 -0.992279,-0.49312 -0.449995,-0.32033 -0.895345,-0.82275 -1.095046,-1.23535 -0.160113,-0.33076 -0.241712,-0.73691 -0.148054,-0.73691 0.01922,0 0.107658,0.12149 0.196583,0.26999 0.485847,0.81133 1.132098,1.40759 1.828292,1.68685 0.193509,0.0776 0.207307,0.0795 0.578664,0.0799 l 0.380455,3.3e-4 0.750039,-0.20183 c 1.141197,-0.3071 1.010519,-0.28657 1.839342,-0.28914 0.513724,-0.002 0.750455,-0.0113 0.814868,-0.0333 0.101376,-0.0346 0.231728,-0.1684 0.255207,-0.26194 0.04267,-0.16998 -0.05877,-0.40019 -0.308615,-0.70043 -0.153573,-0.18453 -0.196942,-0.27745 -0.196942,-0.42223 0,-0.23745 0.210302,-0.49619 0.838482,-1.03164 0.367206,-0.31301 0.474259,-0.42985 0.57209,-0.62466 0.146169,-0.29102 0.171522,-0.73814 0.06196,-1.09284 -0.0412,-0.13347 -0.07879,-0.19531 -0.191265,-0.3147 l -0.139954,-0.14859 -0.392694,0.0272 c -0.46478,0.0322 -0.5801,0.0163 -0.828093,-0.11405 -0.452328,-0.2377 -0.895031,-0.86004 -1.210019,-1.70103 -0.172688,-0.46113 -0.350559,-0.78532 -0.794159,-1.44728 -0.39616,-0.59118 -0.542475,-0.8469 -0.54252,-0.94797 0,-0.0282 0.02088,-0.13315 0.04643,-0.23318 0.02558,-0.10002 0.05432,-0.26592 0.06393,-0.36864 0.02486,-0.26616 0.0401,-0.27896 0.165867,-0.13917 0.0573,0.0637 0.132226,0.12232 0.166541,0.13023 0.03427,0.008 0.193128,-0.008 0.352915,-0.0361 0.479565,-0.0833 0.74608,-0.0639 1.050724,0.0766 0.125775,0.058 0.174955,0.0704 0.195898,0.0494 0.03895,-0.0389 -0.04528,-0.4283 -0.197379,-0.91274 -0.165576,-0.52728 -0.188572,-0.63019 -0.150981,-0.67549 0.04789,-0.0577 0.108264,-0.043 0.229338,0.0557 0.245168,0.19996 0.484255,0.57655 0.615156,0.96889 0.03274,0.0982 0.133056,0.44285 0.222877,0.76588 0.257709,0.92671 0.424429,1.35065 0.685324,1.74274 0.18339,0.27565 0.352432,0.43114 0.468672,0.43114 0.09964,0 0.15585,-0.0249 0.285215,-0.12627 0.0492,-0.0385 0.10178,-0.0701 0.116812,-0.0701 0.01499,0 0.167786,0.12826 0.339375,0.28503 0.463389,0.42331 0.691505,0.56423 1.029242,0.63579 0.232031,0.0492 0.605732,0.0486 0.646868,-0.001 0.0374,-0.0451 0.04348,-0.039 -0.123217,-0.12236 -0.585608,-0.29288 -1.064197,-1.02366 -1.829335,-2.79346 -0.398583,-0.92194 -0.64743,-1.31513 -1.152639,-1.82118 -0.530853,-0.53179 -1.012,-0.82009 -1.627201,-0.97507 -0.181011,-0.0456 -0.283218,-0.0539 -0.667778,-0.0545 -0.560009,-9e-4 -0.623143,0.0161 -1.288577,0.34501 -0.850451,0.42042 -1.009936,0.42541 -1.902163,0.0594 -1.397581,-0.57328 -1.80267,-0.68895 -2.586655,-0.73852 -0.45566,-0.0288 -0.823753,-0.003 -1.082684,0.0771 -0.0945,0.0291 -0.514206,0.18887 -0.932689,0.3551 -0.41845,0.16623 -0.90994,0.34816 -1.092197,0.4043 -0.920753,0.28366 -1.224534,0.41011 -1.618854,0.67395 -0.833164,0.55745 -1.497006,1.47333 -1.861464,2.56816 -0.214374,0.64392 -0.321022,1.15458 -0.445496,2.13316 -0.119134,0.93679 -0.201552,1.171 -0.738521,2.09852 -0.233703,0.40362 -0.367173,0.66438 -0.367184,0.71734 0,0.0166 0.0274,0.0481 0.06092,0.0701 0.08116,0.0532 0.224021,0.0196 0.599296,-0.14068 0.521172,-0.22265 0.944154,-0.50208 1.188524,-0.78521 0.06241,-0.0723 0.221453,-0.27406 0.353431,-0.44831 0.131968,-0.17425 0.269387,-0.3386 0.305273,-0.36523 0.09174,-0.0679 0.166238,-0.0411 0.261355,0.0938 0.143207,0.20318 0.175537,0.15901 0.386725,-0.52849 0.152406,-0.49625 0.300303,-0.86507 0.37801,-0.94279 0.04481,-0.0448 0.05774,-0.0466 0.129611,-0.0177 0.164219,0.0659 0.161998,0.0666 0.32192,-0.0977 0.108185,-0.11117 0.188887,-0.22811 0.277654,-0.40218 0.248667,-0.48772 0.32763,-0.80788 0.387354,-1.57082 0.05991,-0.76574 0.133829,-1.08973 0.344042,-1.50829 0.344568,-0.68607 1.000232,-1.12038 1.76776,-1.17094 0.197087,-0.013 0.227376,-0.009 0.281042,0.0345 0.05782,0.0472 0.05854,0.0514 0.01919,0.11145 -0.02746,0.0419 -0.107804,0.0881 -0.244191,0.14044 -0.439674,0.16869 -0.656662,0.3409 -0.820556,0.65119 -0.180529,0.34176 -0.220857,0.55718 -0.340036,1.81531 -0.154695,1.63305 -0.216416,1.8881 -0.697361,2.88263 -0.0972,0.20101 -0.100265,0.21485 -0.0995,0.45407 0.0018,0.46802 0.06426,0.7399 0.166439,0.72048 0.02279,-0.004 0.105011,-0.10165 0.182673,-0.21627 0.07772,-0.11461 0.196257,-0.26713 0.263418,-0.33892 0.09915,-0.10593 0.13494,-0.12906 0.189975,-0.12272 0.08462,0.01 0.103833,0.0909 0.0717,0.30234 -0.03572,0.23513 -0.02568,0.85583 0.01951,1.20266 0.114793,0.88122 0.39404,1.99775 0.504985,2.01912 0.02484,0.005 0.07793,-0.068 0.159507,-0.21875 0.22042,-0.40721 0.496235,-0.73474 0.588782,-0.69923 0.04073,0.0156 0.04373,0.0284 0.0978,0.42059 0.02234,0.162 0.08973,0.54304 0.149714,0.84678 0.379086,1.91822 0.930434,3.19244 1.761658,4.07114 0.429903,0.45448 1.112658,0.8788 1.758214,1.0927 0.298071,0.0988 0.793004,0.20591 0.965962,0.2091 0.104663,0.002 0.116946,-0.003 0.100658,-0.0408 z m 0.458801,-6.59177 c -0.01483,-0.0178 -0.03954,-0.0923 -0.05507,-0.16566 -0.04623,-0.21832 -0.143275,-0.3719 -0.264619,-0.41873 -0.04793,-0.0185 -0.09324,-0.002 -0.255656,0.0932 -0.158318,0.0928 -0.219635,0.11565 -0.309894,0.11533 -0.230348,-9e-4 -0.494631,-0.19015 -0.580997,-0.41627 -0.05703,-0.14937 -0.02079,-0.2706 0.116026,-0.38769 0.121838,-0.10431 0.274525,-0.16023 0.488742,-0.17904 0.321561,-0.0282 0.555588,0.0974 0.81296,0.43636 0.259706,0.34201 0.361149,0.6222 0.281255,0.77673 -0.03731,0.0721 -0.148996,0.17811 -0.187664,0.17811 -0.0101,0 -0.03032,-0.0146 -0.04508,-0.0324 z m -1.926382,-0.2683 c -0.227174,-0.30302 -0.328785,-0.87973 -0.225132,-1.27769 0.118158,-0.45359 0.5124,-0.81794 1.044218,-0.96493 0.25459,-0.0704 0.710732,-0.0585 0.992234,0.0258 0.600718,0.17993 1.205329,0.56563 1.725132,1.10048 0.188405,0.19385 0.202483,0.21553 0.202483,0.31141 0,0.0812 -0.01518,0.11829 -0.07173,0.17481 -0.136892,0.1369 -0.202202,0.10675 -0.680421,-0.31421 -0.694029,-0.61093 -1.112053,-0.87421 -1.51786,-0.95599 -0.611218,-0.12318 -1.158393,0.2389 -1.330857,0.88068 -0.04555,0.16952 -0.0582,0.64431 -0.02484,0.93374 0.02237,0.19395 -0.01245,0.22034 -0.113233,0.0859 z m -1.825937,-4.83139 c -0.148491,-0.0735 -0.359253,-0.31107 -0.427244,-0.48156 -0.04685,-0.1175 -0.05672,-0.18851 -0.05729,-0.41196 0,-0.25376 0.0037,-0.27785 0.07174,-0.40079 0.14295,-0.25804 0.435816,-0.47179 0.762054,-0.55623 0.197065,-0.051 0.695835,-0.0734 0.894582,-0.0401 0.203516,0.034 0.226142,0.0145 0.297824,-0.25688 0.0504,-0.19082 0.09184,-0.24839 0.132001,-0.18341 0.0079,0.0126 0.03492,0.13796 0.06027,0.27855 0.02893,0.16048 0.07543,0.31644 0.124911,0.4191 0.06185,0.12816 0.07544,0.18176 0.06298,0.24807 -0.01587,0.085 -0.112,0.1849 -0.177782,0.1849 -0.01896,0 -0.136207,-0.0395 -0.260535,-0.0879 -0.294806,-0.11455 -0.448189,-0.13216 -0.537169,-0.0617 -0.08613,0.0682 -0.108365,0.17316 -0.05748,0.27152 0.0743,0.14373 0.263621,0.15584 0.36171,0.0232 0.02908,-0.0393 0.06142,-0.0715 0.07186,-0.0715 0.01043,0 0.03114,0.0452 0.04599,0.10033 0.05304,0.19694 -0.05933,0.46981 -0.247085,0.5999 -0.07996,0.0554 -0.136466,0.0731 -0.258718,0.0809 -0.08604,0.005 -0.196325,0.002 -0.245078,-0.007 -0.178072,-0.0334 -0.427839,-0.35036 -0.427839,-0.543 0,-0.10596 0.06139,-0.27208 0.137285,-0.3716 0.03449,-0.0452 0.0591,-0.093 0.05469,-0.10617 -0.01171,-0.0351 -0.189302,0.0653 -0.299181,0.16898 -0.131384,0.12397 -0.186094,0.25294 -0.186756,0.43999 0,0.19665 0.06153,0.37358 0.208238,0.59224 0.151273,0.2255 0.117463,0.28142 -0.103979,0.17181 z m 6.444983,1.38294 c 0.06513,-0.12286 0.200498,-1.13936 0.216775,-1.62798 0.01659,-0.49742 -0.01767,-0.72213 -0.139304,-0.91396 -0.06672,-0.10523 -0.276656,-0.2858 -0.331702,-0.28534 -0.0552,5.6e-4 -0.218524,0.13825 -0.239793,0.20232 -0.07586,0.22829 0.234543,0.36654 0.390461,0.17394 0.07616,-0.0941 0.10703,-0.0553 0.10703,0.13437 0,0.30841 -0.172195,0.53391 -0.452037,0.59202 -0.143185,0.0297 -0.325464,0.002 -0.427547,-0.0643 -0.09821,-0.0641 -0.08476,-0.021 0.04796,0.15383 0.165711,0.21832 0.2287,0.36151 0.41412,0.9417 0.141536,0.44279 0.213993,0.62796 0.276241,0.70565 0.03557,0.0444 0.111315,0.0376 0.1378,-0.0123 z m -1.100015,-2.04578 c -0.06678,-0.14712 -0.06625,-0.36585 0.0018,-0.50512 0.05999,-0.12394 0.214879,-0.26463 0.335033,-0.30427 0.143567,-0.0474 0.05519,-0.0745 -0.254006,-0.078 -0.333542,-0.004 -0.444924,0.0238 -0.53644,0.13254 -0.0747,0.0888 -0.07943,0.18598 -0.015,0.31039 0.07155,0.13825 0.482683,0.58802 0.511334,0.55938 0.0037,-0.004 -0.01519,-0.0555 -0.04207,-0.11491 z m -15.600761,-0.1661 c 0.0074,-0.0117 -0.02576,-0.13598 -0.07337,-0.27612 -0.154504,-0.4547 -0.201586,-0.73068 -0.186576,-1.09271 0.0056,-0.13597 0.07216,-0.21813 0.158924,-0.19635 0.03562,0.009 0.205915,0.14975 0.378435,0.31291 0.533703,0.50479 0.825615,0.69692 1.242292,0.81767 0.225244,0.0653 0.581816,0.11256 0.843712,0.11187 l 0.166641,-5.6e-4 0.171802,-0.26277 c 0.791569,-1.21064 1.725268,-2.11154 2.736651,-2.64048 0.14176,-0.0741 0.430957,-0.2029 0.642662,-0.28614 0.38714,-0.15222 0.521026,-0.23518 0.506499,-0.31383 -0.0043,-0.0234 -0.07964,-0.0883 -0.167394,-0.14433 -0.08775,-0.056 -0.192521,-0.12951 -0.232917,-0.16337 -0.07202,-0.0604 -0.07251,-0.0625 -0.02782,-0.11191 0.113065,-0.12492 0.858539,-0.27799 1.807034,-0.37103 0.45999,-0.0451 0.662686,-0.078 0.66208,-0.10733 0,-0.0155 -0.09902,-0.0819 -0.219343,-0.14765 -0.259145,-0.14155 -0.342987,-0.21873 -0.304656,-0.28044 0.07498,-0.12078 0.340318,-0.17598 0.848028,-0.17646 0.457937,-5.6e-4 0.681454,0.0239 1.034369,0.11259 0.484265,0.12169 1.148846,0.41273 1.661112,0.72741 1.166088,0.71633 1.253543,0.76502 1.521729,0.84741 0.541039,0.16619 0.879281,0.0547 1.507113,-0.49665 0.428187,-0.37604 0.589568,-0.47936 0.748772,-0.47936 0.09082,0 0.14931,0.0764 0.149838,0.19567 0,0.0476 0.01099,0.10306 0.02352,0.1232 0.02663,0.0421 0.292742,0.0683 0.729555,0.0717 l 0.274872,0.002 0.06665,0.0874 c 0.07611,0.0998 0.133403,0.13312 0.383147,0.22282 0.224122,0.0805 0.442153,0.19088 0.693849,0.35127 0.108264,0.069 0.200161,0.11305 0.205097,0.0983 0.01099,-0.0326 -0.209113,-0.36671 -0.459788,-0.69839 -0.600785,-0.79484 -1.291808,-1.50739 -1.798397,-1.85435 -0.276386,-0.18932 -0.726459,-0.42017 -0.985907,-0.50569 -0.179284,-0.0591 -0.238571,-0.0663 -0.556542,-0.0677 -0.278394,-0.001 -0.387948,0.008 -0.503167,0.0433 -0.215832,0.0659 -0.522552,0.23272 -0.647048,0.35203 -0.0918,0.088 -0.103923,0.11008 -0.07762,0.14178 0.04194,0.0505 0.11237,0.0473 0.285193,-0.0131 0.257551,-0.09 0.967173,-0.0966 0.967173,-0.009 0,0.0193 -0.0038,0.035 -0.0086,0.035 -0.0047,0 -0.140078,0.0339 -0.300673,0.0754 -0.55827,0.14407 -0.915268,0.3746 -1.111682,0.71791 -0.04714,0.0824 -0.09661,0.13941 -0.120929,0.13941 -0.0226,0 -0.151588,-0.086 -0.286584,-0.19112 -0.914449,-0.71203 -1.755768,-1.16573 -2.626221,-1.41632 -0.417822,-0.12029 -0.609861,-0.14056 -1.226385,-0.12944 -0.564137,0.0102 -0.565931,0.0104 -0.85984,0.0982 -0.546559,0.16326 -1.045452,0.41435 -1.494257,0.75209 -0.460742,0.34673 -1.05713,0.96642 -1.564212,1.62538 -0.454964,0.59124 -0.608111,0.77436 -0.846974,1.01271 -0.666006,0.66461 -1.413241,1.05643 -2.189612,1.14814 -0.430666,0.0509 -0.887873,-0.0499 -1.257537,-0.27725 -0.345365,-0.21239 -0.462042,-0.26612 -0.578058,-0.26612 -0.12674,0 -0.1588,0.0381 -0.21471,0.25507 -0.05364,0.20812 -0.07532,0.2191 -0.186767,0.0945 -0.191388,-0.21393 -0.378828,-0.66581 -0.44341,-1.06885 -0.06707,-0.41862 0.0064,-1.2115 0.16165,-1.74493 0.209124,-0.71845 0.671245,-1.56165 1.245579,-2.27281 0.257204,-0.31845 0.797963,-0.85052 1.060472,-1.04346 0.107984,-0.0794 0.24823,-0.18262 0.311622,-0.22944 0.128759,-0.0951 0.180665,-0.191 0.156131,-0.2887 -0.0091,-0.036 -0.08207,-0.13376 -0.162323,-0.21732 -0.144913,-0.1509 -0.167932,-0.19264 -0.12195,-0.22105 0.04405,-0.0272 0.574054,-0.0834 1.058142,-0.11207 0.278977,-0.0165 0.811816,-0.0236 1.275497,-0.0169 0.721714,0.0105 0.83543,0.0179 1.213563,0.0798 0.666185,0.10902 1.53085,0.0971 1.695618,-0.0234 0.04083,-0.0299 0.02749,-0.0384 -0.135501,-0.087 -0.228497,-0.0681 -0.446203,-0.16392 -1.241047,-0.54655 -0.985425,-0.47439 -1.171069,-0.52159 -2.049419,-0.52108 -0.592877,3.4e-4 -0.760865,0.0157 -0.760865,0.0694 0,0.017 0.03955,0.069 0.08793,0.11547 0.152417,0.14663 0.162883,0.21733 0.03915,0.26492 -0.08533,0.0328 -0.166911,0.0442 -0.737848,0.10224 -0.750309,0.0763 -1.207427,0.16988 -1.804028,0.36913 -0.354429,0.11838 -0.77593,0.31302 -0.77593,0.35831 0,0.0264 0.07777,0.0331 0.381823,0.0331 0.210033,0 0.430004,0.0121 0.488853,0.0269 0.121356,0.0306 0.213903,0.10416 0.194519,0.15469 -0.01623,0.0424 -0.194249,0.12229 -0.635696,0.28523 -1.156565,0.42693 -1.719647,0.85445 -2.166759,1.64519 -0.253962,0.44916 -0.529271,1.37246 -0.632711,2.1218 -0.05875,0.42559 -0.03848,1.0859 0.04711,1.53401 0.0798,0.41807 0.19969,0.85536 0.346543,1.26416 0.126078,0.35099 0.439988,1.01844 0.478993,1.01844 0.01364,0 0.02505,-0.008 0.02551,-0.0184 0,-0.0101 0.0049,-0.16751 0.0101,-0.34976 0.01423,-0.51104 0.09948,-0.85241 0.252727,-1.01244 0.07844,-0.0819 0.140448,-0.0859 0.188461,-0.0123 0.01977,0.0304 0.086,0.22642 0.147123,0.43566 0.318195,1.08897 0.787395,1.88573 1.322589,2.24618 0.134997,0.0909 0.153899,0.0978 0.174719,0.0642 z m 21.597398,-1.15835 c 0.237528,-0.086 0.417822,-0.1887 0.672423,-0.38324 0.182886,-0.13977 0.272977,-0.23748 0.717003,-0.77781 0.141357,-0.172 0.294122,-0.33567 0.33951,-0.36372 0.0757,-0.0468 0.08573,-0.0478 0.121882,-0.0116 0.03548,0.0355 0.03622,0.0724 0.0075,0.37265 -0.01767,0.18329 -0.02515,0.34011 -0.01679,0.34847 0.07402,0.074 0.550114,-0.73931 0.80006,-1.36669 0.104315,-0.26181 0.222148,-0.68377 0.274446,-0.98269 0.04165,-0.23811 0.0417,-1.18838 0,-1.48493 -0.11385,-0.81131 -0.537203,-1.75083 -1.127398,-2.50191 -0.199623,-0.25409 -0.770838,-0.81418 -1.017789,-0.99801 -0.462962,-0.34468 -0.95904,-0.60228 -1.372834,-0.71288 -0.161269,-0.0431 -0.274502,-0.055 -0.535845,-0.0563 l -0.331343,-0.002 -0.441795,0.15175 c -0.634775,0.21803 -1.208268,0.32827 -2.146241,0.41253 -0.235531,0.0212 -0.433986,0.0443 -0.441076,0.0514 -0.01898,0.019 0.04661,0.0558 0.150589,0.0846 0.05021,0.0139 0.470164,0.041 0.933216,0.0602 0.463064,0.0192 0.891374,0.0418 0.951839,0.0502 0.794406,0.11095 1.629432,0.42916 2.298445,0.87586 0.294762,0.19683 0.712359,0.58712 0.912711,0.85303 0.270833,0.3594 0.534801,0.98899 0.561264,1.33858 0.01142,0.15067 0.0073,0.17848 -0.0283,0.19213 -0.0494,0.019 -0.148032,-0.0288 -0.30175,-0.14614 -0.07627,-0.0582 -0.12011,-0.0776 -0.137195,-0.0606 -0.02998,0.03 0.107792,0.47179 0.345085,1.1066 0.158609,0.42433 0.160718,0.43309 0.172116,0.72511 0.0132,0.34055 -0.01977,0.54581 -0.103609,0.64329 -0.07016,0.0816 -0.09134,0.0674 -0.244931,-0.16366 -0.103822,-0.15617 -0.378918,-0.44388 -0.424407,-0.44388 -0.06712,0 -0.119594,0.0977 -0.228531,0.42546 -0.261197,0.78589 -0.524111,1.1565 -0.985896,1.38965 -0.480944,0.24284 -0.99644,0.2289 -1.727847,-0.0467 -0.144823,-0.0546 -0.268601,-0.094 -0.275052,-0.0875 -0.03618,0.0362 0.428131,0.38621 0.68538,0.51661 0.347553,0.17617 0.576735,0.21787 1.352901,0.24613 0.368373,0.0134 0.465879,0.0242 0.490883,0.0543 0.01714,0.0207 0.03122,0.10001 0.03122,0.17626 0,0.12086 -0.01499,0.16435 -0.116599,0.33928 -0.06409,0.11036 -0.116565,0.21195 -0.116565,0.22576 0,0.0426 0.08695,0.0282 0.303399,-0.0501 z"
                 id="path1872-3-4-9-3"
                 inkscape:connector-curvature="0" />
            </g>
          </g>
          <g
             inkscape:export-ydpi="14.901735"
             inkscape:export-xdpi="14.901735"
             id="g950">
            <g
               id="g2162"
               transform="matrix(1.7044997,0,0,1.7044996,-2024.5377,-2308.457)">
              <g
                 transform="matrix(10.753584,0,0,10.753584,599.47457,-304.42977)"
                 id="g1979">
                <rect
                   style="opacity:1;vector-effect:none;fill:#efefef;fill-opacity:1;stroke:none;stroke-width:0.0809932;stroke-linecap:butt;stroke-linejoin:bevel;stroke-miterlimit:4;stroke-dasharray:none;stroke-dashoffset:0;stroke-opacity:1;paint-order:stroke fill markers"
                   id="rect995-0"
                   width="46.496124"
                   height="46.496124"
                   x="107.45105"
                   y="198.73039" />
                <path
                   inkscape:connector-curvature="0"
                   id="path1872-3-4-9-3-6"
                   d="m 131.61211,228.20514 c -0.61669,-0.12103 -1.10953,-0.30348 -1.60895,-0.59564 -0.72453,-0.42384 -1.2304,-0.92615 -1.58699,-1.57586 -0.0504,-0.0918 -0.10366,-0.17089 -0.11833,-0.17574 -0.0156,-0.005 -0.0439,0.0301 -0.0679,0.0843 -0.11828,0.26743 -0.22604,0.27144 -0.49217,0.0184 -0.30174,-0.28697 -0.44554,-0.60608 -0.62302,-1.38268 -0.0954,-0.41741 -0.11403,-0.47416 -0.15585,-0.47416 -0.0156,0 -0.0696,0.0735 -0.12005,0.16332 -0.17237,0.30687 -0.2143,0.32128 -0.39855,0.13698 -0.23187,-0.23193 -0.34672,-0.54759 -0.45437,-1.24864 -0.0311,-0.20285 -0.0654,-0.37781 -0.0761,-0.38883 -0.0284,-0.0292 -0.059,0.009 -0.15566,0.19419 -0.0482,0.0923 -0.0987,0.16302 -0.11644,0.16302 -0.0779,0 -0.3123,-0.53095 -0.3854,-0.87314 -0.0588,-0.27512 -0.064,-1.01664 -0.009,-1.35609 0.0201,-0.12494 0.0365,-0.23638 0.0365,-0.24761 0,-0.0442 -0.059,-0.0151 -0.20023,0.0987 -0.96584,0.7788 -2.65759,1.33222 -3.75476,1.22826 -0.32667,-0.031 -0.47412,-0.0893 -0.5545,-0.21938 -0.0895,-0.14474 -0.0381,-0.30225 0.18903,-0.58013 0.78442,-0.9595 0.98798,-1.38153 1.33666,-2.77126 0.0523,-0.20863 0.0979,-0.41253 0.10116,-0.45309 l 0.006,-0.0738 -0.34774,-0.0141 c -0.37115,-0.0151 -0.53381,-0.0342 -0.88509,-0.10423 -1.97161,-0.39311 -3.24856,-1.88693 -3.64581,-4.26512 -0.0942,-0.56403 -0.1145,-0.80512 -0.1135,-1.34874 0.002,-0.54806 0.03,-0.84032 0.12672,-1.27499 0.45007,-2.02396 2.0942,-3.53097 4.41233,-4.04437 0.53316,-0.11808 0.73214,-0.13758 1.40141,-0.13732 0.54394,3.4e-4 0.64129,0.006 0.88513,0.0488 0.30531,0.0541 0.69023,0.1728 0.89668,0.27656 0.0748,0.0376 0.28295,0.16387 0.4626,0.28065 0.17966,0.11677 0.38829,0.24265 0.46363,0.27972 0.21004,0.10334 0.50165,0.19319 0.81463,0.25099 0.15621,0.0289 0.30222,0.0622 0.32451,0.0741 0.0972,0.052 0.0654,0.22792 -0.0647,0.35804 -0.16006,0.16007 -0.52008,0.2836 -1.02023,0.35009 -0.21577,0.0287 -0.35348,0.031 -0.90768,0.0155 -1.06096,-0.0297 -1.35224,-0.0241 -1.63114,0.0313 -0.80135,0.1592 -1.51219,0.54368 -2.10958,1.14105 -0.54708,0.5471 -0.91512,1.17826 -1.08498,1.86063 -0.0542,0.21775 -0.0562,0.24618 -0.0488,0.67437 0.008,0.44697 0.008,0.44707 0.0762,0.61868 0.41909,1.05057 1.5298,1.27625 2.61846,0.53202 0.35932,-0.24562 0.61562,-0.51796 1.12068,-1.19082 0.38896,-0.51821 0.56617,-0.72961 0.87819,-1.04774 0.67927,-0.69259 1.42604,-1.12353 2.22393,-1.28329 0.30303,-0.0607 0.84581,-0.0648 1.14974,-0.009 0.56216,0.10373 1.12719,0.37191 1.64194,0.77935 0.0975,0.0772 0.19515,0.14033 0.21696,0.14033 0.0218,0 0.13169,-0.0665 0.24419,-0.14779 0.36376,-0.26286 0.83134,-0.47017 1.26876,-0.56252 0.25501,-0.0538 0.82997,-0.0529 1.06423,0.002 0.51201,0.11936 1.06617,0.39184 1.54499,0.7596 0.3737,0.28703 0.66511,0.59298 1.41027,1.48063 0.69566,0.82873 1.01761,1.12362 1.47031,1.34682 0.29271,0.14431 0.45093,0.18492 0.67471,0.17319 0.13481,-0.007 0.19984,-0.0228 0.31279,-0.0757 0.25603,-0.1198 0.51166,-0.41072 0.67877,-0.77235 0.41067,-0.88886 0.42274,-2.22605 0.0272,-3.0106 -0.30686,-0.60862 -0.91984,-1.04447 -1.70517,-1.21248 -0.20893,-0.0447 -0.43376,-0.0666 -1.23166,-0.11982 -0.60245,-0.0402 -0.8174,-0.0822 -1.07473,-0.20991 -0.28469,-0.14128 -0.51637,-0.3629 -0.51637,-0.49394 0,-0.0603 0.093,-0.0795 0.51633,-0.10648 0.76439,-0.0487 1.17198,-0.13747 2.32973,-0.50747 0.68072,-0.21755 0.83073,-0.25091 1.13097,-0.25149 0.7818,-0.002 1.50195,0.35692 2.20709,1.09852 0.75544,0.79451 1.29693,1.90595 1.47695,3.03155 0.0469,0.29312 0.0658,1.09177 0.0321,1.35889 -0.0603,0.47908 -0.22814,0.94156 -0.64634,1.78115 -0.40308,0.80923 -0.71075,1.25519 -1.08087,1.56668 -0.46198,0.38884 -0.9225,0.56934 -1.81366,0.71091 -0.29942,0.0476 -0.38004,0.0691 -0.38004,0.10151 0,0.038 0.20819,0.33041 0.3768,0.52914 0.33637,0.39646 0.60948,0.58633 1.028,0.71471 0.40413,0.12395 0.44805,0.2726 0.15059,0.50951 -0.35248,0.28072 -0.98991,0.4287 -1.62363,0.37693 -0.637,-0.052 -1.15928,-0.25012 -1.68092,-0.63753 -0.19865,-0.14751 -0.6313,-0.56276 -0.79356,-0.76158 -0.0956,-0.11717 -0.1337,-0.11493 -0.1337,0.008 0,0.1203 -0.0722,0.52072 -0.16173,0.89651 l -0.0791,0.33202 0.14675,0.1398 c 0.17322,0.16502 0.39522,0.28305 0.62376,0.33163 0.15186,0.0323 0.26707,0.0313 0.64236,-0.005 0.16441,-0.016 0.25008,0.0219 0.41145,0.18214 0.22475,0.22322 0.31932,0.49035 0.32061,0.9058 0,0.2948 -0.0301,0.44768 -0.1315,0.64859 -0.0889,0.17615 -0.18164,0.28535 -0.59448,0.70016 -0.27017,0.27148 -0.38458,0.40216 -0.4336,0.49524 -0.14161,0.26886 -0.12053,0.36164 0.1444,0.6361 0.26968,0.27937 0.29537,0.37109 0.16917,0.60389 -0.099,0.18254 -0.44372,0.45125 -0.78992,0.61565 -0.0895,0.0425 -0.16279,0.0824 -0.16279,0.0886 0,0.006 0.0325,0.0602 0.0721,0.11999 0.26643,0.40139 0.22488,0.92685 -0.10051,1.27136 -0.22002,0.23296 -0.37311,0.27721 -0.67221,0.19432 -0.39043,-0.1082 -0.70817,0.0114 -0.85625,0.32227 -0.0601,0.12613 -0.0627,0.14484 -0.0748,0.5207 -0.007,0.21443 -0.0266,0.461 -0.0439,0.54793 -0.10806,0.5445 -0.5552,0.97078 -1.15212,1.09834 -0.1378,0.0294 -0.30674,0.0447 -0.56531,0.0511 -0.32522,0.008 -0.39868,0.003 -0.6217,-0.0405 z m 0.75778,-0.99827 c -0.1214,-0.28099 -0.16348,-0.42833 -0.17313,-0.60588 -0.0185,-0.34104 0.0862,-0.61746 0.33451,-0.88337 0.30849,-0.33031 0.65693,-0.41443 1.84155,-0.44451 0.72963,-0.0185 0.92242,-0.0537 1.07029,-0.19528 0.0856,-0.082 0.1299,-0.25071 0.10107,-0.38524 -0.0497,-0.23165 -0.17418,-0.37416 -0.43502,-0.49803 l -0.15421,-0.0732 -0.37534,0.008 -0.37538,0.008 -0.35828,0.11923 c -0.43467,0.14468 -0.47918,0.15631 -0.70492,0.18418 -0.22738,0.0281 -0.6689,-0.003 -0.88618,-0.0633 -0.21852,-0.0602 -0.62672,-0.26304 -0.85199,-0.42341 -0.38638,-0.27504 -0.76877,-0.70644 -0.94024,-1.0607 -0.13747,-0.28399 -0.20754,-0.63273 -0.12712,-0.63273 0.0165,0 0.0924,0.10431 0.16878,0.23182 0.41716,0.69664 0.97206,1.20859 1.56983,1.44837 0.16614,0.0667 0.17799,0.0683 0.49685,0.0686 h 0.32667 l 0.644,-0.1733 c 0.97986,-0.26368 0.86766,-0.24605 1.5793,-0.24827 0.4411,-0.001 0.64436,-0.01 0.69967,-0.0285 0.087,-0.0297 0.19896,-0.1446 0.21912,-0.2249 0.0367,-0.14596 -0.0505,-0.34362 -0.26498,-0.60141 -0.13186,-0.15844 -0.1691,-0.23823 -0.1691,-0.36254 0,-0.20388 0.18057,-0.42604 0.71995,-0.88578 0.31529,-0.26877 0.40721,-0.3691 0.49121,-0.53635 0.1255,-0.24988 0.14726,-0.63379 0.0532,-0.93835 -0.0354,-0.1146 -0.0677,-0.16769 -0.16423,-0.2702 l -0.12017,-0.12758 -0.33718,0.0233 c -0.39906,0.0276 -0.49808,0.014 -0.71102,-0.0979 -0.38838,-0.20409 -0.76849,-0.73845 -1.03895,-1.46055 -0.14827,-0.39593 -0.30099,-0.67428 -0.68188,-1.24266 -0.34016,-0.5076 -0.46578,-0.72717 -0.46582,-0.81396 0,-0.0242 0.0179,-0.11432 0.0399,-0.20021 0.022,-0.0859 0.0466,-0.22832 0.0549,-0.31652 0.0213,-0.22853 0.0344,-0.23952 0.14242,-0.11949 0.0492,0.0547 0.11353,0.10502 0.143,0.11181 0.0294,0.007 0.16582,-0.007 0.30302,-0.031 0.41176,-0.0715 0.64059,-0.0548 0.90217,0.0657 0.108,0.0498 0.15022,0.0604 0.1682,0.0424 0.0334,-0.0334 -0.0389,-0.36775 -0.16947,-0.7837 -0.14217,-0.45273 -0.16191,-0.54109 -0.12964,-0.57999 0.0411,-0.0495 0.093,-0.0369 0.19692,0.0479 0.2105,0.17168 0.41579,0.49503 0.52819,0.83191 0.0281,0.0843 0.11425,0.38024 0.19137,0.65759 0.22127,0.7957 0.36442,1.15971 0.58843,1.49637 0.15746,0.23667 0.30261,0.37019 0.40241,0.37019 0.0855,0 0.13382,-0.0214 0.2449,-0.10842 0.0422,-0.0331 0.0874,-0.0602 0.1003,-0.0602 0.0129,0 0.14406,0.11013 0.29138,0.24473 0.39789,0.36347 0.59376,0.48446 0.88374,0.54591 0.19923,0.0422 0.52009,0.0417 0.55542,-10e-4 0.0321,-0.0387 0.0373,-0.0335 -0.1058,-0.10507 -0.50282,-0.25147 -0.91374,-0.87893 -1.57072,-2.39853 -0.34222,-0.79159 -0.55589,-1.12919 -0.98967,-1.56371 -0.45581,-0.4566 -0.86893,-0.70414 -1.39716,-0.83721 -0.15542,-0.0391 -0.24318,-0.0463 -0.57337,-0.0468 -0.48084,-0.001 -0.53504,0.0138 -1.10641,0.29624 -0.73021,0.36098 -0.86715,0.36527 -1.63323,0.051 -1.2,-0.49223 -1.54782,-0.59154 -2.22096,-0.63412 -0.39125,-0.0247 -0.7073,-0.002 -0.92963,0.0662 -0.0811,0.025 -0.4415,0.16216 -0.80082,0.30489 -0.3593,0.14272 -0.7813,0.29894 -0.9378,0.34715 -0.79058,0.24355 -1.05141,0.35213 -1.38998,0.57866 -0.71537,0.47865 -1.28537,1.26504 -1.5983,2.20508 -0.18406,0.5529 -0.27564,0.99135 -0.38252,1.83159 -0.10229,0.80436 -0.17305,1.00545 -0.6341,1.80184 -0.20067,0.34656 -0.31527,0.57045 -0.31528,0.61593 0,0.0142 0.0235,0.0413 0.0523,0.0601 0.0697,0.0457 0.19235,0.0168 0.51457,-0.12078 0.4475,-0.19119 0.81068,-0.43111 1.0205,-0.67421 0.0536,-0.0621 0.19014,-0.23531 0.30346,-0.38493 0.11332,-0.14961 0.23131,-0.29073 0.26212,-0.3136 0.0788,-0.0583 0.14274,-0.0353 0.22441,0.0805 0.12296,0.17446 0.15072,0.13653 0.33205,-0.45377 0.13085,-0.4261 0.25784,-0.74278 0.32456,-0.80952 0.0385,-0.0385 0.0496,-0.04 0.1113,-0.0152 0.14099,0.0566 0.13909,0.0572 0.27641,-0.0839 0.0929,-0.0955 0.16217,-0.19587 0.23839,-0.34533 0.21352,-0.41876 0.28131,-0.69366 0.3326,-1.34874 0.0515,-0.65748 0.1149,-0.93568 0.2954,-1.29505 0.29585,-0.58909 0.85882,-0.96199 1.51783,-1.00541 0.16923,-0.0111 0.19524,-0.008 0.24131,0.0296 0.0497,0.0405 0.0503,0.0441 0.0165,0.0957 -0.0236,0.036 -0.0926,0.0756 -0.20966,0.12058 -0.37752,0.14484 -0.56382,0.29271 -0.70455,0.55913 -0.15501,0.29345 -0.18963,0.47841 -0.29196,1.55867 -0.13283,1.40217 -0.18582,1.62117 -0.59878,2.4751 -0.0835,0.17258 -0.0861,0.18447 -0.0854,0.38987 0.002,0.40185 0.0552,0.6353 0.14292,0.61861 0.0196,-0.004 0.0902,-0.0873 0.15684,-0.18567 0.0667,-0.0984 0.16851,-0.22938 0.22618,-0.29102 0.0851,-0.091 0.11586,-0.11081 0.16311,-0.10537 0.0727,0.008 0.0892,0.078 0.0616,0.25959 -0.0307,0.20189 -0.0221,0.73484 0.0167,1.03265 0.0986,0.75663 0.33833,1.7153 0.4336,1.73365 0.0213,0.004 0.0669,-0.0584 0.13694,-0.18782 0.18927,-0.34964 0.42609,-0.63087 0.50555,-0.60037 0.035,0.0134 0.0376,0.0244 0.084,0.36113 0.0192,0.13909 0.077,0.46627 0.12855,0.72705 0.32548,1.64704 0.79889,2.74112 1.51259,3.49559 0.36913,0.39022 0.95537,0.75456 1.50965,0.93822 0.25593,0.0848 0.6809,0.1768 0.8294,0.17954 0.0899,0.002 0.10041,-0.003 0.0864,-0.035 z m 0.39394,-5.65985 c -0.0127,-0.0153 -0.034,-0.0793 -0.0473,-0.14224 -0.0397,-0.18746 -0.12303,-0.31933 -0.22722,-0.35953 -0.0411,-0.0159 -0.08,-0.002 -0.21951,0.08 -0.13593,0.0797 -0.18859,0.0993 -0.26608,0.099 -0.19778,-0.001 -0.4247,-0.16328 -0.49886,-0.35743 -0.049,-0.12825 -0.0179,-0.23234 0.0996,-0.33288 0.10461,-0.0896 0.23571,-0.13757 0.41964,-0.15373 0.2761,-0.0242 0.47704,0.0836 0.69803,0.37467 0.22299,0.29366 0.31009,0.53424 0.24149,0.66693 -0.032,0.0619 -0.12793,0.15292 -0.16113,0.15292 -0.009,0 -0.026,-0.0125 -0.0387,-0.0278 z m -1.65405,-0.23037 c -0.19506,-0.26017 -0.2823,-0.75535 -0.19331,-1.09705 0.10146,-0.38946 0.43997,-0.70231 0.89659,-0.82852 0.21861,-0.0604 0.61026,-0.0503 0.85197,0.0222 0.51579,0.15449 1.03492,0.48566 1.48123,0.9449 0.16178,0.16644 0.17386,0.18505 0.17386,0.26739 0,0.0697 -0.013,0.10157 -0.0616,0.15009 -0.11753,0.11754 -0.17361,0.0917 -0.58422,-0.26979 -0.59592,-0.52456 -0.95484,-0.75062 -1.30327,-0.82083 -0.52481,-0.10578 -0.99462,0.20512 -1.14271,0.75616 -0.0391,0.14555 -0.05,0.55322 -0.0213,0.80173 0.0192,0.16653 -0.0107,0.18919 -0.0972,0.0738 z m -1.56779,-4.14835 c -0.1275,-0.0631 -0.30847,-0.26709 -0.36685,-0.41347 -0.0402,-0.10089 -0.0487,-0.16186 -0.0492,-0.35372 0,-0.21789 0.003,-0.23857 0.0616,-0.34413 0.12275,-0.22156 0.37421,-0.40509 0.65432,-0.4776 0.16921,-0.0438 0.59747,-0.063 0.76811,-0.0344 0.17474,0.0292 0.19417,0.0125 0.25573,-0.22056 0.0433,-0.16385 0.0788,-0.21329 0.11333,-0.15749 0.007,0.0109 0.03,0.11846 0.0518,0.23917 0.0248,0.1378 0.0648,0.27171 0.10724,0.35985 0.0531,0.11004 0.0648,0.15606 0.0541,0.213 -0.0136,0.073 -0.0962,0.15876 -0.15265,0.15876 -0.0163,0 -0.11695,-0.034 -0.2237,-0.0754 -0.25313,-0.0984 -0.38483,-0.11348 -0.46123,-0.053 -0.0739,0.0586 -0.093,0.14869 -0.0493,0.23314 0.0638,0.12341 0.22635,0.13381 0.31057,0.0199 0.025,-0.0338 0.0527,-0.0614 0.0617,-0.0614 0.009,0 0.0267,0.0388 0.0395,0.0861 0.0455,0.1691 -0.0509,0.40339 -0.21216,0.51508 -0.0686,0.0476 -0.11717,0.0628 -0.22213,0.0694 -0.0739,0.005 -0.16858,0.002 -0.21044,-0.006 -0.1529,-0.0287 -0.36735,-0.30083 -0.36735,-0.46624 0,-0.091 0.0527,-0.23361 0.11787,-0.31905 0.0296,-0.0388 0.0507,-0.0798 0.047,-0.0912 -0.0101,-0.0301 -0.16254,0.056 -0.25689,0.14508 -0.1128,0.10645 -0.15977,0.21719 -0.16034,0.3778 0,0.16884 0.0528,0.32076 0.1788,0.5085 0.12988,0.19362 0.10085,0.24164 -0.0893,0.14753 z m 5.53382,1.18743 c 0.0559,-0.10549 0.17215,-0.97829 0.18613,-1.39782 0.0143,-0.4271 -0.0152,-0.62004 -0.11962,-0.78475 -0.0573,-0.0904 -0.23754,-0.24539 -0.2848,-0.245 -0.0474,0 -0.18763,0.11871 -0.20589,0.17371 -0.0651,0.19602 0.20138,0.31473 0.33526,0.14935 0.0654,-0.0808 0.0919,-0.0475 0.0919,0.11538 0,0.2648 -0.14785,0.45843 -0.38813,0.50832 -0.12295,0.0255 -0.27945,0.002 -0.36711,-0.0552 -0.0843,-0.055 -0.0728,-0.018 0.0412,0.13208 0.14228,0.18746 0.19636,0.31039 0.35558,0.80857 0.12152,0.38019 0.18374,0.53918 0.23718,0.60588 0.0306,0.0381 0.0956,0.0323 0.11832,-0.0106 z m -0.9445,-1.75656 c -0.0573,-0.12633 -0.0569,-0.31412 0.002,-0.43371 0.0515,-0.10641 0.1845,-0.22722 0.28767,-0.26125 0.12327,-0.0407 0.0474,-0.064 -0.2181,-0.067 -0.28638,-0.003 -0.38202,0.0204 -0.46059,0.1138 -0.0641,0.0762 -0.0682,0.15969 -0.0129,0.26652 0.0614,0.11869 0.41444,0.50487 0.43903,0.48029 0.003,-0.003 -0.013,-0.0477 -0.0361,-0.0987 z m -13.39519,-0.14261 c 0.006,-0.0101 -0.0221,-0.11676 -0.063,-0.23709 -0.13265,-0.39042 -0.17308,-0.62738 -0.16019,-0.93822 0.005,-0.11676 0.062,-0.1873 0.13645,-0.1686 0.0306,0.008 0.17681,0.12858 0.32494,0.26868 0.45824,0.43342 0.70889,0.59839 1.06665,0.70206 0.19341,0.056 0.49957,0.0966 0.72443,0.0961 h 0.14309 l 0.14751,-0.22561 c 0.67966,-1.03949 1.48136,-1.81303 2.34976,-2.26718 0.12172,-0.0636 0.37003,-0.17422 0.5518,-0.2457 0.33241,-0.1307 0.44737,-0.20193 0.4349,-0.26945 -0.004,-0.0201 -0.0684,-0.0759 -0.14373,-0.12394 -0.0753,-0.0481 -0.16531,-0.11119 -0.19999,-0.14027 -0.0618,-0.0519 -0.0623,-0.0537 -0.0239,-0.0961 0.0971,-0.10725 0.73716,-0.23868 1.55156,-0.31857 0.39496,-0.0387 0.569,-0.067 0.56848,-0.0922 0,-0.0133 -0.085,-0.0704 -0.18833,-0.12678 -0.22252,-0.12154 -0.2945,-0.1878 -0.26159,-0.2408 0.0644,-0.10369 0.2922,-0.15109 0.72814,-0.1515 0.39319,0 0.5851,0.0205 0.88813,0.0967 0.41581,0.10447 0.98643,0.35437 1.42627,0.62457 1.00123,0.61505 1.07632,0.65686 1.30659,0.7276 0.46456,0.14271 0.75498,0.047 1.29405,-0.42643 0.36765,-0.32288 0.50621,-0.41159 0.64291,-0.41159 0.078,0 0.1282,0.0656 0.12866,0.16801 0,0.0409 0.009,0.0885 0.0202,0.10578 0.0229,0.0362 0.25136,0.0586 0.62642,0.0616 l 0.23601,0.002 0.0572,0.075 c 0.0653,0.0857 0.11454,0.1143 0.32898,0.19132 0.19243,0.0691 0.37964,0.16389 0.59576,0.3016 0.093,0.0592 0.17186,0.0971 0.1761,0.0844 0.009,-0.028 -0.17956,-0.31487 -0.3948,-0.59967 -0.51584,-0.68246 -1.10917,-1.29427 -1.54414,-1.59219 -0.23731,-0.16254 -0.62376,-0.36075 -0.84652,-0.43418 -0.15394,-0.0508 -0.20484,-0.057 -0.47786,-0.0582 -0.23903,-0.001 -0.33311,0.007 -0.43204,0.0372 -0.18531,0.0565 -0.44867,0.19982 -0.55556,0.30227 -0.0788,0.0755 -0.0892,0.0945 -0.0666,0.12172 0.036,0.0434 0.0965,0.0406 0.24487,-0.0113 0.22114,-0.0773 0.83044,-0.0829 0.83044,-0.008 0,0.0166 -0.003,0.0301 -0.007,0.0301 -0.004,0 -0.12028,0.0291 -0.25817,0.0647 -0.47934,0.1237 -0.78587,0.32164 -0.95452,0.61641 -0.0405,0.0707 -0.083,0.11971 -0.10383,0.1197 -0.0194,0 -0.13015,-0.0738 -0.24607,-0.1641 -0.78516,-0.61136 -1.50754,-1.00093 -2.25493,-1.21608 -0.35876,-0.10329 -0.52364,-0.12069 -1.05301,-0.11114 -0.48438,0.009 -0.48591,0.009 -0.73827,0.0843 -0.46929,0.14017 -0.89766,0.35577 -1.28302,0.64576 -0.39559,0.29771 -0.90767,0.8298 -1.34306,1.39559 -0.39064,0.50766 -0.52213,0.66489 -0.72724,0.86954 -0.57185,0.57064 -1.21344,0.90708 -1.88005,0.98583 -0.36977,0.0437 -0.76234,-0.0429 -1.07975,-0.23807 -0.29654,-0.18236 -0.39672,-0.22849 -0.49634,-0.22849 -0.10881,0 -0.13634,0.0327 -0.18435,0.21901 -0.0461,0.1787 -0.0647,0.18812 -0.16036,0.0811 -0.16433,-0.18367 -0.32528,-0.57168 -0.38073,-0.91774 -0.0576,-0.35943 0.005,-1.04022 0.1388,-1.49824 0.17957,-0.61687 0.57635,-1.34087 1.06948,-1.95148 0.22085,-0.27343 0.68516,-0.73028 0.91056,-0.89594 0.0927,-0.0682 0.21313,-0.15681 0.26756,-0.197 0.11056,-0.0817 0.15512,-0.164 0.13406,-0.24789 -0.008,-0.0309 -0.0705,-0.11485 -0.13938,-0.1866 -0.12442,-0.12956 -0.14418,-0.1654 -0.10471,-0.18979 0.0378,-0.0234 0.4929,-0.0716 0.90855,-0.0962 0.23953,-0.0142 0.69705,-0.0203 1.09517,-0.0145 0.61969,0.009 0.71732,0.0154 1.042,0.0685 0.572,0.0936 1.31442,0.0834 1.4559,-0.02 0.0351,-0.0257 0.0236,-0.033 -0.11635,-0.0747 -0.19619,-0.0584 -0.38311,-0.14074 -1.06559,-0.46928 -0.84611,-0.40732 -1.00551,-0.44785 -1.75969,-0.44741 -0.50905,3.4e-4 -0.65329,0.0135 -0.65329,0.0596 0,0.0146 0.034,0.0592 0.0755,0.0991 0.13087,0.1259 0.13985,0.1866 0.0336,0.22747 -0.0733,0.0282 -0.14331,0.0379 -0.63353,0.0878 -0.64423,0.0655 -1.03673,0.14585 -1.54898,0.31694 -0.30432,0.10164 -0.66623,0.26876 -0.66623,0.30765 0,0.0226 0.0668,0.0284 0.32784,0.0284 0.18034,0 0.36922,0.0104 0.41974,0.0231 0.10421,0.0262 0.18366,0.0894 0.16701,0.13283 -0.0139,0.0364 -0.16677,0.10499 -0.54581,0.2449 -0.99306,0.36658 -1.47654,0.73366 -1.86044,1.4126 -0.21805,0.38566 -0.45444,1.17843 -0.54326,1.82183 -0.0504,0.36542 -0.033,0.93237 0.0404,1.31714 0.0685,0.35896 0.17146,0.73442 0.29756,1.08543 0.10825,0.30137 0.37778,0.87446 0.41127,0.87446 0.0117,0 0.0215,-0.007 0.0219,-0.0158 0,-0.009 0.004,-0.14382 0.009,-0.3003 0.0122,-0.4388 0.0854,-0.73191 0.217,-0.86931 0.0673,-0.0703 0.12059,-0.0738 0.16182,-0.0106 0.017,0.0261 0.0738,0.19441 0.12632,0.37407 0.27321,0.93502 0.67608,1.61914 1.13561,1.92862 0.11592,0.0781 0.13214,0.084 0.15002,0.0551 z m 18.54405,-0.99459 c 0.20394,-0.0738 0.35874,-0.16202 0.57736,-0.32907 0.15703,-0.12 0.23437,-0.2039 0.61563,-0.66783 0.12137,-0.14769 0.25254,-0.28823 0.29152,-0.3123 0.065,-0.0402 0.0736,-0.041 0.10465,-0.01 0.0305,0.0305 0.0311,0.0621 0.007,0.31995 -0.0152,0.15739 -0.0216,0.29203 -0.0144,0.29922 0.0636,0.0635 0.47235,-0.63479 0.68696,-1.17347 0.0896,-0.22481 0.19074,-0.58711 0.23564,-0.84377 0.0358,-0.20444 0.0358,-1.02036 0,-1.27499 -0.0977,-0.69662 -0.46126,-1.50331 -0.96801,-2.1482 -0.1714,-0.21817 -0.66186,-0.69908 -0.8739,-0.85692 -0.39751,-0.29595 -0.82346,-0.51713 -1.17875,-0.6121 -0.13847,-0.037 -0.23569,-0.0472 -0.46009,-0.0483 l -0.2845,-0.001 -0.37933,0.13029 c -0.54504,0.18721 -1.03745,0.28186 -1.84281,0.35421 -0.20224,0.0182 -0.37264,0.038 -0.37873,0.0441 -0.0163,0.0163 0.04,0.0479 0.12931,0.0727 0.0431,0.0119 0.40369,0.0352 0.80127,0.0517 0.39761,0.0165 0.76536,0.0359 0.81728,0.0431 0.68209,0.0953 1.39906,0.36849 1.9735,0.75203 0.25308,0.16901 0.61164,0.50412 0.78367,0.73244 0.23254,0.30859 0.45919,0.84917 0.48192,1.14933 0.01,0.12936 0.006,0.15325 -0.0243,0.16497 -0.0424,0.0163 -0.12711,-0.0247 -0.25909,-0.12547 -0.0655,-0.05 -0.10314,-0.0666 -0.1178,-0.052 -0.0257,0.0258 0.0926,0.40509 0.2963,0.95016 0.13618,0.36433 0.13799,0.37186 0.14777,0.62259 0.0113,0.29241 -0.017,0.46865 -0.089,0.55235 -0.0602,0.07 -0.0784,0.0579 -0.2103,-0.14053 -0.0891,-0.13409 -0.32535,-0.38112 -0.3644,-0.38112 -0.0576,0 -0.10269,0.0839 -0.19622,0.3653 -0.22427,0.67479 -0.45002,0.99301 -0.84652,1.19319 -0.41295,0.20851 -0.85556,0.19654 -1.48358,-0.0401 -0.12435,-0.0469 -0.23062,-0.0807 -0.23615,-0.0752 -0.0311,0.0311 0.36759,0.33161 0.58847,0.44358 0.29842,0.15126 0.49521,0.18707 1.16164,0.21132 0.31629,0.0115 0.40001,0.0208 0.42148,0.0467 0.0147,0.0178 0.0268,0.0859 0.0268,0.15134 0,0.10378 -0.0129,0.14112 -0.10012,0.29131 -0.055,0.0948 -0.10009,0.18198 -0.10009,0.19384 0,0.0366 0.0747,0.0242 0.26052,-0.043 z"
                   style="fill:#222831;fill-opacity:1;stroke:none;stroke-width:0.02107413" />
                <flowRoot
                   xml:space="preserve"
                   id="flowRoot1431-5-9-7"
                   style="font-style:normal;font-weight:normal;font-size:40px;line-height:1.25;font-family:sans-serif;letter-spacing:0px;word-spacing:0px;fill:#222831;fill-opacity:1;stroke:none"
                   transform="matrix(0.11152233,0,0,0.11152233,181.15056,155.80938)"><flowRegion
                     id="flowRegion1433-3-2-5"
                     style="fill:#222831;fill-opacity:1"><rect
                       id="rect1435-8-8-9"
                       width="878.87067"
                       height="339.21326"
                       x="-582.05908"
                       y="667.66553"
                       style="fill:#222831;fill-opacity:1" /></flowRegion><flowPara
                     id="flowPara1437-8-8-2"
                     style="font-style:normal;font-variant:normal;font-weight:900;font-stretch:normal;font-family:Lato;-inkscape-font-specification:'Lato Heavy';fill:#222831;fill-opacity:1">NAIROBI LUG</flowPara></flowRoot>                <flowRoot
                   xml:space="preserve"
                   id="flowRoot1463-8-2"
                   style="font-style:normal;font-weight:normal;font-size:40px;line-height:1.25;font-family:sans-serif;letter-spacing:0px;word-spacing:0px;fill:#222831;fill-opacity:1;stroke:none"
                   transform="matrix(0.02369773,0,0,0.02369773,136.89719,222.13853)"><flowRegion
                     id="flowRegion1465-68-8"
                     style="fill:#222831;fill-opacity:1"><rect
                       id="rect1467-3-9"
                       width="1194.9558"
                       height="616.75134"
                       x="-770.93921"
                       y="532.75122"
                       style="fill:#222831;fill-opacity:1" /></flowRegion><flowPara
                     id="flowPara1469-8-7"
                     style="font-style:normal;font-variant:normal;font-weight:normal;font-stretch:normal;font-size:96px;font-family:lato;-inkscape-font-specification:lato;fill:#222831;fill-opacity:1">GNU/Linux Users Group</flowPara></flowRoot>              </g>
            </g>
          </g>
          <g
             id="g1182">
            <rect
               style="opacity:1;vector-effect:none;fill:#efefef;fill-opacity:1;stroke:none;stroke-width:0.42608538;stroke-linecap:butt;stroke-linejoin:bevel;stroke-miterlimit:4;stroke-dasharray:none;stroke-dashoffset:0;stroke-opacity:1;paint-order:stroke fill markers"
               id="rect2072"
               width="1500"
               height="499.99997"
               x="-645.00006"
               y="535.42334" />
            <flowRoot
               xml:space="preserve"
               id="flowRoot1431-5-9"
               style="font-style:normal;font-weight:normal;font-size:40px;line-height:1.25;font-family:sans-serif;letter-spacing:0px;word-spacing:0px;fill:#222831;fill-opacity:1;stroke:none"
               transform="matrix(1.9999375,0,0,1.9999375,1188.3299,-620.37596)"><flowRegion
                 id="flowRegion1433-3-2"
                 style="fill:#222831;fill-opacity:1"><rect
                   id="rect1435-8-8"
                   width="878.87067"
                   height="339.21326"
                   x="-582.05908"
                   y="667.66553"
                   style="fill:#222831;fill-opacity:1" /></flowRegion><flowPara
                 id="flowPara1437-8-8"
                 style="font-style:normal;font-variant:normal;font-weight:900;font-stretch:normal;font-family:Lato;-inkscape-font-specification:'Lato Heavy';fill:#222831;fill-opacity:1">NAIROBI LUG</flowPara></flowRoot>            <flowRoot
               xml:space="preserve"
               id="flowRoot1463-8"
               style="font-style:normal;font-weight:normal;font-size:40px;line-height:1.25;font-family:sans-serif;letter-spacing:0px;word-spacing:0px;fill:#222831;fill-opacity:1;stroke:none"
               transform="matrix(0.42497293,0,0,0.42497293,394.73133,569.10919)"><flowRegion
                 id="flowRegion1465-68"
                 style="fill:#222831;fill-opacity:1"><rect
                   id="rect1467-3"
                   width="1194.9558"
                   height="616.75134"
                   x="-770.93921"
                   y="532.75122"
                   style="fill:#222831;fill-opacity:1" /></flowRegion><flowPara
                 id="flowPara1469-8"
                 style="font-style:normal;font-variant:normal;font-weight:normal;font-stretch:normal;font-size:96px;font-family:lato;-inkscape-font-specification:lato;fill:#222831;fill-opacity:1">GNU/Linux Users Group</flowPara></flowRoot>            <path
               inkscape:connector-curvature="0"
               id="path1872-3-4-9-36"
               d="m -179.82811,889.01909 c -6.4026,-1.2567 -11.5192,-3.1508 -16.7043,-6.184 -7.5221,-4.4002 -12.7742,-9.6154 -16.47629,-16.3607 -0.52318,-0.9532 -1.0762,-1.7743 -1.2285,-1.8245 -0.16162,-0.053 -0.45562,0.312 -0.70468,0.8754 -1.228,2.7764 -2.3467,2.8181 -5.1096,0.1908 -3.1327,-2.9793 -4.62569,-6.2923 -6.4683,-14.3551 -0.99039,-4.3336 -1.18389,-4.9229 -1.61809,-4.9229 -0.16171,0 -0.72251,0.7631 -1.2464,1.6957 -1.7896,3.186 -2.22481,3.3356 -4.13771,1.4222 -2.40739,-2.4079 -3.59979,-5.6851 -4.7174,-12.9636 -0.32332,-2.1059 -0.67873,-3.9224 -0.78963,-4.0367 -0.2948,-0.304 -0.61304,0.094 -1.6161,2.016 -0.50001,0.9583 -1.0244,1.6926 -1.2089,1.6926 -0.80898,0 -3.2423,-5.5125 -4.0013,-9.0651 -0.61036,-2.8563 -0.66456,-10.5549 -0.099,-14.0791 0.20851,-1.2972 0.37869,-2.4541 0.37869,-2.5708 0,-0.4591 -0.61233,-0.1569 -2.0788,1.0252 -10.02751,8.0856 -27.5914,13.8312 -38.9823,12.752 -3.3916,-0.3209 -4.9224,-0.9269 -5.7569,-2.2776 -0.9289,-1.5028 -0.39597,-3.1381 1.9626,-6.0231 8.1438,-9.9617 10.2572,-14.3432 13.8773,-28.7714 0.54333,-2.1661 1.0162,-4.2829 1.0503,-4.7041 l 0.0606,-0.7658 -3.6103,-0.1462 c -3.85331,-0.156 -5.5421,-0.3547 -9.18911,-1.082 -20.4695,-4.0812 -33.72689,-19.5904 -37.85109,-44.2809 -0.9781,-5.8558 -1.18881,-8.3589 -1.1785,-14.0028 0.016,-5.69 0.31191,-8.7243 1.3156,-13.2371 4.6728,-21.0129 21.7423,-36.6589 45.80939,-41.9891 5.5352,-1.2259 7.60111,-1.4283 14.5496,-1.4256 5.6472,0 6.6579,0.053 9.1894,0.5063 3.16971,0.5616 7.16601,1.7941 9.3095,2.8713 0.77635,0.3904 2.93751,1.7014 4.8027,2.9137 1.8652,1.2125 4.03131,2.5192 4.8134,2.9042 2.18071,1.0729 5.20831,2.0057 8.4577,2.6058 1.6217,0.2995 3.1376,0.6463 3.3691,0.7702 1.0092,0.5402 0.679,2.3662 -0.67196,3.7172 -1.6618,1.6619 -5.3996,2.9444 -10.5922,3.6346 -2.2401,0.2977 -3.6699,0.3227 -9.4236,0.1614 -11.015,-0.3085 -14.0391,-0.2505 -16.9347,0.3253 -8.31969,1.6529 -15.6997,5.6447 -21.9018,11.8466 -5.68,5.6801 -9.501,12.2327 -11.2645,19.3173 -0.56223,2.2607 -0.5838,2.5558 -0.5066,7.0013 0.082,4.6405 0.082,4.6415 0.7915,6.4232 4.351,10.9072 15.8826,13.2502 27.1851,5.5236 3.7305,-2.5502 6.3915,-5.3776 11.6351,-12.3634 4.0382,-5.3799 5.878,-7.5748 9.1174,-10.8777 7.0522,-7.1905 14.8054,-11.6645 23.08909,-13.3232 3.1461,-0.6303 8.7814,-0.6731 11.9367,-0.09 5.8365,1.0771 11.7026,3.8613 17.0469,8.0914 1.0123,0.8014 2.026,1.4569 2.2524,1.4569 0.22642,0 1.3673,-0.6909 2.53521,-1.5344 3.7766,-2.729 8.63119,-4.8813 13.17249,-5.8401 2.6475,-0.5589 8.6168,-0.5491 11.0489,0.018 5.3157,1.2392 11.0692,4.0681 16.0403,7.8863 3.8798,2.9799 6.9052,6.1565 14.6415,15.372 7.2225,8.6039 10.5649,11.6657 15.265,13.9829 3.039,1.4983 4.6816,1.9198 7.0048,1.798 1.3997,-0.071 2.0748,-0.2372 3.2476,-0.7854 2.658,-1.2437 5.3121,-4.2641 7.0469,-8.0187 4.263691,-9.2282 4.388991,-23.1109 0.28231,-31.2563 -3.1858,-6.3187 -9.54979,-10.8438 -17.70319,-12.5881 -2.1691,-0.4644 -4.50331,-0.6909 -12.78721,-1.244 -6.25469,-0.4172 -8.48629,-0.8531 -11.15789,-2.1793 -2.9557,-1.4667 -5.36111,-3.7676 -5.36111,-5.1281 0,-0.6267 0.96551,-0.8255 5.36061,-1.1055 7.9359,-0.5054 12.16759,-1.4272 24.1875,-5.2686 7.06739,-2.2587 8.6248,-2.605 11.7418,-2.611 8.1169,-0.018 15.593501,3.7056 22.914401,11.405 7.84299,8.2487 13.4648,19.7876 15.33379,31.4739 0.48664,3.0431 0.68284,11.3348 0.33367,14.108 -0.62624,4.974 -2.3686,9.7755 -6.7104,18.4923 -4.1849,8.4014 -7.3791,13.0313 -11.2217,16.2654 -4.7964,4.0369 -9.5775,5.911 -18.829701,7.3807 -3.1085,0.4939 -3.9456,0.7177 -3.9456,1.0539 0,0.3949 2.1615,3.4304 3.912,5.4936 3.4922,4.116 6.3277,6.0874 10.672901,7.4202 4.1956,1.287 4.65159,2.8302 1.5634,5.2898 -3.6596,2.9145 -10.277301,4.4507 -16.856701,3.9133 -6.6134,-0.5402 -12.0358,-2.5967 -17.4516,-6.6188 -2.0623,-1.5316 -6.55419,-5.8426 -8.2387,-7.9069 -0.99249,-1.2164 -1.3882,-1.1931 -1.3882,0.08 0,1.249 -0.75005,5.4063 -1.679,9.3077 l -0.82127,3.447 1.52369,1.4514 c 1.79831,1.7133 4.10321,2.9387 6.47591,3.4431 1.5766,0.3352 2.7727,0.3254 6.6691,-0.054 1.7069,-0.1667 2.5963,0.2273 4.27169,1.891 2.3333,2.3175 3.31511,5.0909 3.32851,9.4042 0,3.0606 -0.31218,4.6478 -1.3652,6.7337 -0.9232,1.8288 -1.8858,2.9625 -6.1719,7.2691 -2.805,2.8185 -3.9928,4.1753 -4.5018,5.1417 -1.4701,2.7913 -1.25131,3.7546 1.4993,6.604 2.79979,2.9005 3.06649,3.8527 1.7563,6.2697 -1.0273,1.8952 -4.6068,4.6849 -8.201,6.3918 -0.92971,0.4412 -1.6902,0.8557 -1.6902,0.9198 0,0.062 0.33687,0.6249 0.74889,1.2456 2.76619,4.1674 2.33479,9.6228 -1.0434,13.1996 -2.2844,2.4184 -3.8738,2.8779 -6.979,2.0175 -4.0536,-1.1234 -7.3523,0.1176 -8.8897,3.3458 -0.62364,1.3094 -0.65155,1.5036 -0.7767,5.4059 -0.0713,2.2263 -0.27635,4.7861 -0.45544,5.6887 -1.1219,5.6531 -5.7642,10.0787 -11.96139,11.4031 -1.43071,0.3058 -3.1847,0.4644 -5.86921,0.5304 -3.3764,0.08 -4.13899,0.036 -6.4545,-0.4208 z m 7.8673,-10.3642 c -1.2604,-2.9173 -1.6972,-4.447 -1.7974,-6.2903 -0.19219,-3.5406 0.8947,-6.4104 3.4729,-9.1712 3.2028,-3.4293 6.8204,-4.3027 19.1192,-4.6149 7.5752,-0.1925 9.5767,-0.5571 11.1119,-2.0273 0.88911,-0.8514 1.3486,-2.603 1.0493,-3.9998 -0.51623,-2.4049 -1.8083,-3.8845 -4.5164,-5.1706 l -1.601,-0.7604 -3.8969,0.08 -3.8973,0.08 -3.7196,1.2379 c -4.5128,1.502 -4.975,1.6228 -7.3186,1.9121 -2.3606,0.2915 -6.9446,-0.036 -9.2004,-0.657 -2.2686,-0.6249 -6.5067,-2.7308 -8.8455,-4.3957 -4.0114,-2.8556 -7.9814,-7.3344 -9.7616,-11.0124 -1.4273,-2.9484 -2.1547,-6.5691 -1.31979,-6.5691 0.17133,0 0.95969,1.083 1.75239,2.4068 4.331,7.2326 10.0919,12.5477 16.298,15.0372 1.725,0.6917 1.848,0.7086 5.1584,0.7122 h 3.3915 l 6.6861,-1.7992 c 10.173,-2.7376 9.0081,-2.5545 16.3965,-2.5775 4.5795,-0.018 6.6898,-0.1008 7.264,-0.2969 0.9037,-0.3084 2.0657,-1.5012 2.275,-2.335 0.38038,-1.5153 -0.52389,-3.5675 -2.7511,-6.2439 -1.369,-1.6449 -1.7556,-2.4733 -1.7556,-3.7638 0,-2.1168 1.8747,-4.4232 7.4745,-9.1964 3.2734,-2.7904 4.2277,-3.8319 5.0998,-5.5685 1.303,-2.5942 1.529,-6.58 0.55233,-9.7419 -0.36727,-1.1899 -0.70236,-1.7411 -1.705,-2.8054 l -1.24761,-1.3245 -3.50059,0.2425 c -4.1432,0.287 -5.1712,0.1453 -7.3819,-1.0167 -4.0322,-2.1189 -7.9786,-7.6667 -10.7865,-15.1636 -1.5394,-4.1106 -3.125,-7.0005 -7.07941,-12.9015 -3.5315,-5.2699 -4.8358,-7.5494 -4.8362,-8.4505 0,-0.2514 0.18613,-1.1869 0.4139,-2.0786 0.22802,-0.8917 0.48422,-2.3705 0.56989,-3.2862 0.22161,-2.3727 0.35746,-2.4868 1.4786,-1.2405 0.51079,0.5678 1.1787,1.0903 1.4846,1.1608 0.3055,0.071 1.7216,-0.071 3.146,-0.3218 4.275,-0.7426 6.6508,-0.5696 9.3665,0.6828 1.1212,0.517 1.5596,0.6276 1.7463,0.4404 0.34721,-0.3468 -0.40364,-3.8181 -1.7595,-8.1366 -1.476,-4.7002 -1.681,-5.6177 -1.3459,-6.0215 0.4269,-0.5144 0.9651,-0.3833 2.0444,0.4965 2.1855,1.7824 4.3168,5.1395 5.4837,8.637 0.29186,0.8754 1.1861,3.9476 1.9868,6.8272 2.29729,8.261 3.7835,12.0402 6.1092,15.5354 1.63479,2.4572 3.1417,3.8433 4.1779,3.8433 0.88822,0 1.3893,-0.2219 2.5425,-1.1256 0.43859,-0.3432 0.9073,-0.6249 1.0413,-0.6249 0.13363,0 1.4957,1.1435 3.0253,2.5409 4.13079,3.7735 6.1643,5.0297 9.17499,5.6676 2.06841,0.4386 5.39971,0.4332 5.76641,-0.01 0.33339,-0.402 0.38759,-0.3477 -1.0984,-1.0909 -5.2203,-2.6107 -9.4866,-9.1251 -16.3073,-24.9017 -3.5531,-8.2185 -5.77141,-11.7235 -10.275,-16.2346 -4.7322,-4.7405 -9.02131,-7.3105 -14.5054,-8.6921 -1.6136,-0.4065 -2.5247,-0.4805 -5.9528,-0.4858 -4.9921,-0.01 -5.5549,0.1435 -11.4868,3.0755 -7.5812,3.7478 -9.0029,3.7922 -16.9565,0.5295 -12.4585,-5.1104 -16.0696,-6.1415 -23.0583,-6.5834 -4.0619,-0.2567 -7.3432,-0.027 -9.6514,0.6864 -0.84241,0.2594 -4.58379,1.6837 -8.3143,3.1655 -3.7302,1.4818 -8.11149,3.1036 -9.7362,3.6041 -8.20789,2.5286 -10.91589,3.6558 -14.43099,6.0078 -7.4271,4.9693 -13.3448,13.1337 -16.5937,22.8933 -1.911,5.7402 -2.8617,10.2923 -3.9713,19.0158 -1.062,8.3508 -1.7967,10.4387 -6.58341,18.7069 -2.08329,3.598 -3.27309,5.9225 -3.27319,6.3946 0,0.148 0.24434,0.4288 0.54315,0.624 0.72348,0.4742 1.99699,0.1747 5.34229,-1.2541 4.6459,-1.9847 8.4165,-4.4757 10.59491,-6.9996 0.55625,-0.6445 1.97409,-2.4431 3.1506,-3.9964 1.17639,-1.5533 2.40139,-3.0184 2.72129,-3.2558 0.8178,-0.6052 1.4819,-0.3663 2.3298,0.8362 1.27661,1.8112 1.56481,1.4175 3.44741,-4.7111 1.35859,-4.4238 2.677,-7.7115 3.36969,-8.4044 0.39945,-0.3993 0.51472,-0.4154 1.15541,-0.1577 1.46389,0.5883 1.44409,0.5936 2.86969,-0.871 0.9644,-0.991 1.6838,-2.0334 2.47511,-3.5851 2.2167,-4.3477 2.92059,-7.2018 3.45299,-14.0028 0.53415,-6.8262 1.193,-9.7143 3.0669,-13.4454 3.0716,-6.1159 8.91639,-9.9875 15.7584,-10.4382 1.7569,-0.1159 2.0269,-0.08 2.5053,0.3076 0.51543,0.4207 0.52176,0.4582 0.17107,0.9935 -0.24479,0.3735 -0.961,0.7853 -2.1768,1.2519 -3.9194,1.5037 -5.8537,3.0389 -7.3147,5.8049 -1.6093,3.0466 -1.9688,4.9669 -3.0312,16.1823 -1.379,14.5575 -1.92919,16.8311 -6.21649,25.6967 -0.86647,1.7918 -0.89381,1.9152 -0.88698,4.0477 0.0161,4.1721 0.57284,6.5957 1.4837,6.4226 0.20325,-0.036 0.93611,-0.9061 1.6284,-1.9279 0.69282,-1.0217 1.7495,-2.3813 2.3482,-3.0212 0.88386,-0.9443 1.2029,-1.1505 1.6935,-1.094 0.75433,0.089 0.9256,0.8094 0.63916,2.6952 -0.31842,2.0959 -0.22892,7.6291 0.17392,10.7209 1.0233,7.8555 3.5126,17.8086 4.5016,17.9991 0.22143,0.044 0.69469,-0.6062 1.4219,-1.95 1.9649,-3.63 4.4236,-6.5498 5.2486,-6.2332 0.36308,0.1391 0.38982,0.2532 0.87182,3.7493 0.19906,1.4441 0.79988,4.8408 1.3346,7.5484 3.37931,17.0997 8.29421,28.4585 15.704,36.2915 3.83231,4.0514 9.9186,7.8339 15.67331,9.7407 2.65709,0.8807 7.0691,1.8356 8.61089,1.864 0.933,0.018 1.0425,-0.027 0.8973,-0.3637 z m 4.0899,-58.7611 c -0.1322,-0.1586 -0.35247,-0.8237 -0.49091,-1.4768 -0.41211,-1.9462 -1.2772,-3.3152 -2.35889,-3.7327 -0.42736,-0.1649 -0.83118,-0.018 -2.27901,0.8308 -1.41129,0.8273 -1.95789,1.0309 -2.7625,1.028 -2.0534,-0.01 -4.4093,-1.695 -5.1792,-3.7108 -0.50838,-1.3314 -0.18533,-2.4122 1.0343,-3.456 1.0861,-0.9298 2.4472,-1.4283 4.3568,-1.596 2.8665,-0.2514 4.9527,0.8683 7.247,3.8899 2.3151,3.0488 3.2194,5.5465 2.5072,6.924 -0.33259,0.6427 -1.3282,1.5877 -1.6729,1.5877 -0.09,0 -0.27028,-0.1301 -0.40194,-0.2888 z m -17.1724,-2.3918 c -2.0251,-2.7012 -2.9309,-7.8421 -2.00689,-11.3896 1.05329,-4.0436 4.56769,-7.2914 9.30849,-8.6018 2.2695,-0.6276 6.3357,-0.5215 8.8451,0.23 5.355,1.6039 10.7447,5.0421 15.3784,9.81 1.6795,1.728 1.805,1.9212 1.805,2.776 0,0.7239 -0.13532,1.0545 -0.63942,1.5583 -1.2203,1.2203 -1.80251,0.9515 -6.06551,-2.801 -6.1868,-5.4461 -9.9132,-7.7929 -13.53069,-8.522 -5.44861,-1.0981 -10.32631,2.1296 -11.86371,7.8506 -0.40596,1.5112 -0.51881,5.7437 -0.22143,8.3238 0.19941,1.7289 -0.11098,1.9641 -1.0094,0.7657 z m -16.277,-43.0686 c -1.32369,-0.6552 -3.2025,-2.773 -3.8086,-4.2928 -0.41764,-1.0474 -0.50562,-1.6804 -0.5107,-3.6723 0,-2.2621 0.033,-2.4768 0.63951,-3.5728 1.2743,-2.3001 3.885,-4.2057 6.7932,-4.9583 1.7567,-0.4546 6.2029,-0.6543 7.9746,-0.3575 1.8142,0.304 2.0159,0.1302 2.6549,-2.2898 0.44928,-1.701 0.81869,-2.2143 1.1767,-1.6351 0.0704,0.1124 0.31129,1.23 0.53727,2.4831 0.25789,1.4306 0.67241,2.8209 1.11351,3.736 0.55126,1.1425 0.67249,1.6203 0.56142,2.2114 -0.14147,0.7577 -0.9984,1.6483 -1.5848,1.6483 -0.16901,0 -1.2142,-0.3522 -2.3225,-0.7836 -2.628,-1.0211 -3.9953,-1.1781 -4.7885,-0.55 -0.76779,0.6079 -0.96599,1.5437 -0.5124,2.4205 0.66234,1.2812 2.35,1.3892 3.2244,0.2059 0.25923,-0.3503 0.54752,-0.6374 0.64059,-0.6374 0.093,0 0.27759,0.403 0.40997,0.8945 0.47281,1.7556 -0.52889,4.188 -2.2026,5.3476 -0.71279,0.4939 -1.2165,0.6516 -2.30631,0.7212 -0.76698,0.045 -1.75009,0.018 -2.18469,-0.062 -1.5874,-0.2978 -3.8139,-3.1232 -3.8139,-4.8405 0,-0.9447 0.54716,-2.4254 1.22379,-3.3127 0.30755,-0.4029 0.52684,-0.829 0.48753,-0.9463 -0.10439,-0.3129 -1.6875,0.5821 -2.667,1.5063 -1.1712,1.1052 -1.65889,2.2548 -1.66479,3.9223 0,1.753 0.54849,3.3302 1.85629,5.2793 1.3485,2.0103 1.0471,2.5087 -0.9269,1.5317 z m 57.4527,12.3281 c 0.58059,-1.0953 1.7873,-10.1567 1.9324,-14.5123 0.14788,-4.4343 -0.15752,-6.4374 -1.2418,-8.1475 -0.59476,-0.9379 -2.4662,-2.5477 -2.9569,-2.5435 -0.49207,0.01 -1.948,1.2324 -2.1376,1.8035 -0.67624,2.035 2.0908,3.2675 3.4807,1.5505 0.67891,-0.8388 0.9541,-0.493 0.9541,1.1978 0,2.7493 -1.535,4.7596 -4.0296,5.2775 -1.2764,0.2647 -2.9013,0.018 -3.8113,-0.5732 -0.87548,-0.5714 -0.75558,-0.1872 0.42753,1.3714 1.4772,1.9462 2.0387,3.2225 3.6916,8.3946 1.2617,3.9472 1.9076,5.5978 2.46249,6.2903 0.31709,0.3958 0.9923,0.3352 1.22841,-0.1096 z m -9.8059,-18.2368 c -0.5953,-1.3115 -0.59058,-3.2614 0.016,-4.5029 0.53477,-1.1047 1.9155,-2.359 2.98661,-2.7123 1.27979,-0.4226 0.49198,-0.6641 -2.26431,-0.6953 -2.9733,-0.036 -3.96619,0.2121 -4.782,1.1814 -0.6659,0.7916 -0.70806,1.658 -0.13371,2.767 0.63782,1.2323 4.3028,5.2417 4.5582,4.9864 0.033,-0.036 -0.13541,-0.4947 -0.37503,-1.0243 z m -139.07028,-1.4807 c 0.066,-0.1043 -0.22964,-1.2122 -0.65405,-2.4614 -1.3773,-4.0534 -1.79699,-6.5136 -1.6632,-9.7408 0.0499,-1.2121 0.64326,-1.9444 1.4167,-1.7503 0.31753,0.08 1.83561,1.3349 3.3735,2.7894 4.75761,4.4998 7.35981,6.2125 11.07421,7.2889 2.0079,0.5821 5.18649,1.0034 7.52109,0.9974 l 1.48551,-0.01 1.5315,-2.3424 c 7.05629,-10.7921 15.37959,-18.823 24.39539,-23.5381 1.26371,-0.6606 3.8417,-1.8087 5.7289,-2.5508 3.45111,-1.3569 4.6446,-2.0964 4.5151,-2.7976 -0.0383,-0.2085 -0.70993,-0.7871 -1.49219,-1.2866 -0.78224,-0.4992 -1.71621,-1.1545 -2.0763,-1.4563 -0.64201,-0.5384 -0.64638,-0.5571 -0.248,-0.9976 1.0079,-1.1136 7.6533,-2.4781 16.1085,-3.3075 4.10049,-0.402 5.9074,-0.6953 5.902,-0.9568 0,-0.1381 -0.8827,-0.73 -1.95531,-1.3162 -2.31009,-1.2618 -3.0575,-1.9498 -2.71579,-2.4999 0.6684,-1.0767 3.0337,-1.5687 7.5596,-1.573 4.08219,-0.01 6.0747,0.213 9.2207,1.0037 4.31689,1.0847 10.2412,3.6792 14.80769,6.4843 10.39491,6.3856 11.17451,6.8197 13.56521,7.5541 4.823,1.4815 7.8382,0.4876 13.4349,-4.4274 3.817,-3.352 5.25559,-4.2731 6.6748,-4.2731 0.8096,0 1.33099,0.6811 1.33569,1.7443 0,0.4243 0.098,0.9187 0.20967,1.0983 0.23739,0.3753 2.6096,0.6088 6.5035,0.6391 l 2.4503,0.018 0.59405,0.7792 c 0.67847,0.8896 1.1892,1.1867 3.4155,1.9863 1.9979,0.7176 3.9415,1.7015 6.18521,3.1314 0.9651,0.6151 1.7843,1.0076 1.82829,0.8763 0.098,-0.2907 -1.86409,-3.269 -4.09869,-6.2257 -5.35561,-7.0855 -11.51561,-13.4374 -16.03151,-16.5303 -2.4638,-1.6876 -6.4759,-3.7455 -8.7887,-4.5079 -1.5982,-0.5268 -2.1267,-0.591 -4.96119,-0.6035 -2.48171,-0.01 -3.45831,0.071 -4.48541,0.386 -1.924,0.5874 -4.6582,2.0744 -5.768,3.1381 -0.81833,0.7836 -0.92639,0.9813 -0.69193,1.2638 0.37387,0.4502 1.0017,0.4216 2.5423,-0.1168 2.2959,-0.8023 8.6217,-0.8611 8.6217,-0.08 0,0.172 -0.0339,0.312 -0.0767,0.312 -0.0419,0 -1.24869,0.3022 -2.6803,0.6721 -4.9766,1.2843 -8.159,3.3393 -9.90989,6.3997 -0.42023,0.7345 -0.86122,1.2428 -1.078,1.2427 -0.20147,0 -1.3513,-0.7667 -2.5547,-1.7037 -8.1517,-6.3472 -15.6515,-10.3917 -23.411,-12.6255 -3.7246,-1.0723 -5.4365,-1.253 -10.93241,-1.1539 -5.02889,0.091 -5.04489,0.093 -7.66489,0.8754 -4.8722,1.4553 -9.31949,3.6937 -13.32029,6.7044 -4.1072,3.0908 -9.4236,8.615 -13.94391,14.4892 -4.05569,5.2705 -5.4209,6.9029 -7.55019,9.0276 -5.93701,5.9245 -12.5981,9.4173 -19.51891,10.2349 -3.83909,0.4537 -7.91479,-0.4448 -11.21009,-2.4715 -3.0787,-1.8933 -4.11881,-2.3723 -5.153,-2.3723 -1.1298,0 -1.41561,0.3397 -1.91401,2.2738 -0.47816,1.8552 -0.67143,1.9531 -1.66489,0.8424 -1.70611,-1.907 -3.37701,-5.9352 -3.9527,-9.5281 -0.59789,-3.7317 0.0571,-10.7997 1.441,-15.5549 1.8642,-6.4045 5.9837,-13.9211 11.1035,-20.2605 2.2928,-2.8388 7.11329,-7.5819 9.4534,-9.3018 0.9626,-0.7078 2.2128,-1.6279 2.7779,-2.0453 1.1478,-0.8477 1.61049,-1.7026 1.3918,-2.5736 -0.0811,-0.321 -0.7316,-1.1923 -1.447,-1.9373 -1.2918,-1.3451 -1.497,-1.7173 -1.0871,-1.9704 0.39267,-0.2425 5.11729,-0.7435 9.4326,-0.9991 2.4869,-0.1471 7.2368,-0.2104 11.3702,-0.1507 6.43359,0.094 7.44729,0.1596 10.81809,0.7114 5.93861,0.9719 13.64651,0.8655 15.1153,-0.2077 0.36397,-0.2666 0.24515,-0.3423 -1.2079,-0.7756 -2.0369,-0.607 -3.9776,-1.4613 -11.06309,-4.8721 -8.7844,-4.2289 -10.4393,-4.6497 -18.2692,-4.6451 -5.28511,0 -6.78261,0.14 -6.78261,0.6187 0,0.1515 0.35257,0.6151 0.78384,1.0293 1.3587,1.3071 1.452,1.9373 0.349,2.3616 -0.76075,0.2924 -1.48791,0.394 -6.57741,0.9114 -6.6885,0.6802 -10.7634,1.5143 -16.08169,3.2905 -3.15951,1.0553 -6.91691,2.7903 -6.91691,3.1941 0,0.2354 0.69327,0.2951 3.40371,0.2951 1.87229,0 3.83319,0.1079 4.35779,0.2398 1.0818,0.2728 1.90681,0.9285 1.734,1.3789 -0.14468,0.378 -1.7316,1.0902 -5.66679,2.5427 -10.31,3.8058 -15.3295,7.6168 -19.31521,14.6657 -2.2639,4.004 -4.71809,12.2345 -5.6402,18.9145 -0.52372,3.7938 -0.34302,9.6799 0.42004,13.6746 0.71137,3.7268 1.7801,7.6249 3.0892,11.2691 1.1239,3.1289 3.9222,9.0788 4.2699,9.0788 0.1216,0 0.22331,-0.071 0.22741,-0.164 0,-0.09 0.0437,-1.4933 0.09,-3.1178 0.12694,-4.5557 0.8868,-7.5987 2.2529,-9.0252 0.69924,-0.7301 1.252,-0.7667 1.68,-0.1097 0.17624,0.271 0.76663,2.0183 1.3115,3.8836 2.8365,9.7075 7.0191,16.81 11.79,20.0231 1.2034,0.8103 1.37189,0.8727 1.5575,0.5723 z m 192.52628,-10.3259 c 2.117391,-0.7658 3.724591,-1.6822 5.994201,-3.4164 1.6303,-1.2459 2.4334,-2.1169 6.3916,-6.9336 1.26009,-1.5333 2.6219,-2.9923 3.02649,-3.2422 0.67482,-0.4172 0.76423,-0.4261 1.08651,-0.1034 0.31628,0.3164 0.32288,0.6454 0.0669,3.3219 -0.15752,1.6339 -0.2242,3.0318 -0.14967,3.1064 0.65983,0.6597 4.9039,-6.5904 7.132,-12.1831 0.9299,-2.3339 1.9803,-6.0954 2.4465,-8.7601 0.37128,-2.1225 0.37172,-10.5935 0,-13.2371 -1.0149,-7.2322 -4.7888,-15.6075 -10.05,-22.3028 -1.7795,-2.2651 -6.8715,-7.2579 -9.0729,-8.8967 -4.127,-3.0725 -8.549201,-5.3688 -12.237901,-6.3548 -1.4376,-0.3842 -2.447,-0.4903 -4.7767,-0.5019 l -2.9537,-0.018 -3.9383,1.3526 c -5.6586,1.9437 -10.77089,2.9263 -19.13229,3.6775 -2.09961,0.189 -3.86871,0.3949 -3.93191,0.4582 -0.16919,0.1694 0.4155,0.4975 1.3424,0.7542 0.44759,0.1239 4.19121,0.3655 8.319,0.5366 4.1279,0.1712 7.946,0.3727 8.485,0.4475 7.08161,0.9892 14.5253,3.8258 20.4891,7.8078 2.627601,1.7546 6.350201,5.2337 8.136201,7.6042 2.4143,3.2038 4.7674,8.8162 5.0033,11.9325 0.1018,1.3431 0.0651,1.591 -0.25227,1.7127 -0.44037,0.1694 -1.3196,-0.2568 -2.6899,-1.3028 -0.6799,-0.5188 -1.0707,-0.6917 -1.223,-0.5393 -0.26717,0.2675 0.9609,4.2057 3.0762,9.8645 1.4139,3.7826 1.4327,3.8607 1.5343,6.4639 0.11766,3.0358 -0.17624,4.8656 -0.9236,5.7345 -0.62543,0.7274 -0.81423,0.6008 -2.1834,-1.4589 -0.9255,-1.3922 -3.3778,-3.9568 -3.7833,-3.9568 -0.59833,0 -1.0661,0.8709 -2.0372,3.7926 -2.3284,7.0057 -4.672111,10.3095 -8.788601,12.3878 -4.2873,2.1648 -8.8826,2.0406 -15.40261,-0.4163 -1.291,-0.4867 -2.39439,-0.838 -2.45189,-0.78 -0.32252,0.3227 3.8165,3.4428 6.1097,4.6052 3.09819,1.5704 5.1412,1.9422 12.0602,2.194 3.2838,0.1194 4.153,0.2157 4.3759,0.4849 0.15279,0.1846 0.2783,0.8916 0.2783,1.5712 0,1.0775 -0.13362,1.4651 -1.0394,3.0244 -0.57132,0.9839 -1.0391,1.8894 -1.0391,2.0125 0,0.3798 0.7751,0.2514 2.70461,-0.4466 z"
               style="fill:#222831;fill-opacity:1;stroke:none;stroke-width:0.218794" />
          </g>
          <g
             id="g1170">
            <rect
               style="opacity:1;vector-effect:none;fill:#efefef;fill-opacity:1;stroke:none;stroke-width:0.42608538;stroke-linecap:butt;stroke-linejoin:bevel;stroke-miterlimit:4;stroke-dasharray:none;stroke-dashoffset:0;stroke-opacity:1;paint-order:stroke fill markers"
               id="rect2072-7"
               width="1500"
               height="499.99997"
               x="-662.30975"
               y="-127.71581" />
            <g
               id="g1158"
               transform="translate(14.180959,-30.322653)">
              <flowRoot
                 transform="matrix(1.9999375,0,0,1.9999375,978.25872,-1253.1924)"
                 style="font-style:normal;font-weight:normal;font-size:40px;line-height:1.25;font-family:sans-serif;letter-spacing:0px;word-spacing:0px;fill:#222831;fill-opacity:1;stroke:none"
                 id="flowRoot1431-5-9-75"
                 xml:space="preserve"><flowRegion
                   style="fill:#222831;fill-opacity:1"
                   id="flowRegion1433-3-2-3"><rect
                     style="fill:#222831;fill-opacity:1"
                     y="667.66553"
                     x="-582.05908"
                     height="339.21326"
                     width="878.87067"
                     id="rect1435-8-8-5" /></flowRegion><flowPara
                   style="font-style:normal;font-variant:normal;font-weight:900;font-stretch:normal;font-family:Lato;-inkscape-font-specification:'Lato Heavy';fill:#222831;fill-opacity:1"
                   id="flowPara1437-8-8-6">NAIROBI LUG</flowPara></flowRoot>              <flowRoot
                 transform="matrix(0.42497293,0,0,0.42497293,184.66009,-63.707264)"
                 style="font-style:normal;font-weight:normal;font-size:40px;line-height:1.25;font-family:sans-serif;letter-spacing:0px;word-spacing:0px;fill:#222831;fill-opacity:1;stroke:none"
                 id="flowRoot1463-8-29"
                 xml:space="preserve"><flowRegion
                   style="fill:#222831;fill-opacity:1"
                   id="flowRegion1465-68-1"><rect
                     style="fill:#222831;fill-opacity:1"
                     y="532.75122"
                     x="-770.93921"
                     height="616.75134"
                     width="1194.9558"
                     id="rect1467-3-2" /></flowRegion><flowPara
                   style="font-style:normal;font-variant:normal;font-weight:normal;font-stretch:normal;font-size:96px;font-family:lato;-inkscape-font-specification:lato;fill:#222831;fill-opacity:1"
                   id="flowPara1469-8-70">GNU/Linux Users Group</flowPara></flowRoot>            </g>
          </g>
        </g>
      </g>
    </g>
  </g>
</svg>
